<svg width="1200" height="1200" viewBox="0 0 1200 1200" fill="none" xmlns="http://www.w3.org/2000/svg">
<path d="M600 914.5C765.41 914.5 899.5 703.84 899.5 555C899.5 406.16 765.41 285.5 600 285.5C434.59 285.5 300.5 406.16 300.5 555C300.5 703.84 434.59 914.5 600 914.5Z" fill="#E9E8E8"/>
<path d="M462.21 443.91L486.87 481.25L543.73 571.6L542.76 578.46V588.43L551.24 595.66L564.29 599.71L573.65 595.66V582.45L569.83 569.47L559.77 560.03L553.52 554.49L486.87 424.11L462.21 443.91Z" fill="white"/>
<path d="M362 711.84C362 711.84 366.77 755.3 337.22 774.97C308.87 774.97 250.22 688.97 250.22 688.97L177.81 705.66C177.479 705.717 177.139 705.673 176.834 705.534C176.528 705.394 176.272 705.166 176.098 704.879C175.924 704.592 175.841 704.259 175.859 703.924C175.877 703.589 175.996 703.267 176.2 703C212.42 661.993 232.397 640.593 236.13 638.8C239.977 636.947 246.977 640.673 257.13 649.98L308.85 692.07L312.72 665.67L361.72 700.17L362 711.84Z" fill="white"/>
<path d="M413.61 704.62L415 773L362 941.33L427.21 991.73C427.492 991.973 427.846 992.118 428.217 992.143C428.588 992.169 428.958 992.075 429.271 991.874C429.585 991.673 429.825 991.376 429.956 991.028C430.087 990.679 430.103 990.298 430 989.94L411.3 922.56L465.3 783.56V700.56L413.61 704.62Z" fill="white"/>
<path d="M455.37 537.29C466.97 593.663 474.267 633.437 477.26 656.61C480.26 679.78 489.57 691.24 481.82 699.61C474.07 707.98 367.82 708.18 351.07 705.54C334.32 702.9 313.24 684.43 308.88 664.45C322.35 582.63 339.72 555.79 348.81 535.45C357.9 515.11 389.35 517 455.37 537.29Z" fill="#1D252E"/>
<path d="M425.51 341.33C425.07 348.503 420.72 354.703 412.46 359.93C404.2 365.157 388.2 363.027 364.46 353.54C364.46 353.54 362.03 352.71 351.52 359.18C341.01 365.65 350.66 426.64 350.66 426.64L337.27 529.29L458.76 540.5C457.72 521.953 456.923 508.873 456.37 501.26C454.12 470.35 452.17 452.13 451.29 447.17C450.09 440.377 450.58 436.29 452.76 434.91L456.37 449.91L499.53 431.72C484.55 386.267 472.9 359.027 464.58 350C456.26 340.973 443.237 338.083 425.51 341.33Z" fill="#2BA4C9"/>
<path d="M495.24 436.87C533.5 514.277 553.637 553.61 555.65 554.87C558.65 556.71 575.41 571.65 575.41 584.34C575.41 597.03 568.72 602 558.5 598.78C548.28 595.56 543.74 591.26 542.1 584.29C540.949 580.01 541.535 575.45 543.73 571.6L468.17 450.54" stroke="#1D252E" stroke-width="4" stroke-linecap="round"/>
<path d="M542.76 573.3C545.14 568.48 548.473 566.067 552.76 566.06C557.047 566.053 560.883 568.903 564.27 574.61" stroke="#1D252E" stroke-width="4" stroke-linecap="round"/>
<path d="M362 711.84C362 711.84 366.77 755.3 337.22 774.97C308.87 774.97 250.22 688.97 250.22 688.97L177.81 705.66C177.479 705.717 177.139 705.673 176.834 705.534C176.528 705.394 176.272 705.166 176.098 704.879C175.924 704.592 175.841 704.259 175.859 703.924C175.877 703.589 175.996 703.267 176.2 703C212.42 661.993 232.397 640.593 236.13 638.8C239.977 636.947 246.977 640.673 257.13 649.98L308.85 692.07" stroke="#1D252E" stroke-width="4" stroke-linecap="round"/>
<path d="M465.31 708.2V783.57L411.31 922.57L430 989.94C430.103 990.298 430.087 990.679 429.956 991.028C429.825 991.376 429.585 991.673 429.271 991.874C428.958 992.075 428.588 992.169 428.217 992.143C427.846 992.118 427.492 991.973 427.21 991.73L362 941.33L415 773L413.79 715.1" stroke="#1D252E" stroke-width="4" stroke-linecap="round"/>
<path d="M424.48 269.31C427.08 259.87 426.547 252.477 422.88 247.13C417.38 239.13 404 228.76 384.69 231.39C365.38 234.02 350.37 251.39 346.38 270.39C343.713 283.057 344.99 296.627 350.21 311.1C353.643 315.767 357.243 318.1 361.01 318.1C366.66 318.1 378.11 315.19 381.91 311.1C384.443 308.367 398.633 294.437 424.48 269.31Z" fill="#1D252E"/>
<path d="M422 269.31L427.22 283.28L425.53 299.55L417.38 311.35L408.5 316.86V333.54L409.06 344.65L425.53 343.35V360.82L382.21 377.69L362.51 359.71L367.54 353.3L382.21 348.41L383.41 316.86L374.99 305.82L371.04 295.28L363.91 294.5L361.72 283.28L366.79 277.58L376.2 275.57L382.21 265.24L380.97 256.58L406.44 269.31H422Z" fill="white"/>
<path d="M422 269.31C426.846 277.563 428.4 287.341 426.35 296.69C424.35 306.257 418.083 312.963 407.55 316.81L409.05 344.65C412.564 343.769 416.16 343.252 419.78 343.11" stroke="#1D252E" stroke-width="4" stroke-linecap="round"/>
<path d="M421.49 268.31C419.137 269.957 414.49 269.957 407.55 268.31C400.61 266.663 391.76 262.753 381 256.58C382.392 260.366 382.392 264.524 381 268.31C379.815 271.947 377.376 275.044 374.12 277.05C368.2 275.543 364.423 277.093 362.79 281.7C360.34 288.62 362.69 294.31 365.01 295.28C366.978 295.929 369.102 295.929 371.07 295.28C370.977 298.82 372.61 302.887 375.97 307.48C379.33 312.073 381.81 314.573 383.41 314.98V348.38L368.6 353.3" stroke="#1D252E" stroke-width="4" stroke-linecap="round"/>
<path d="M410.42 315.59C408.334 316.779 406.033 317.543 403.65 317.84C400.139 318.324 396.57 318.178 393.11 317.41" stroke="#1D252E" stroke-width="4" stroke-linecap="round"/>
<path d="M362.36 321.05C360.564 321.596 358.646 321.596 356.85 321.05C354.65 320.51 352.207 318.69 349.52 315.59" stroke="#1D252E" stroke-width="4" stroke-linecap="round"/>
<path d="M361.72 324.66C360.35 325.36 357.95 325.36 354.54 324.66C351.13 323.96 348.37 321.79 346.26 318.13C343.447 318.13 340.65 320.867 337.87 326.34C333.69 334.55 336.29 344.88 332.87 350.34C330.603 353.967 326.967 357.33 321.96 360.43C338.42 362.43 349.493 358.763 355.18 349.43C360.867 340.097 363.047 331.84 361.72 324.66Z" fill="#1D252E"/>
<path d="M803.34 355.49L787.27 352.23L782.5 320.89L788.03 313.9L790.29 303.95L797.79 302.87L801.33 295.66L799 288.18L796.55 286.01L799.21 272.75L748.96 270.9L746.09 272.64L739.93 285.9L736.93 300.77L740.53 313.22L746.57 320.73L755 325.76L758.07 325.32L762.22 355.57L740.51 356.59L762.44 377.39L805.42 374.6L803.34 355.49Z" fill="white"/>
<path d="M797 353.79C793 353.09 789.82 352.57 787.29 352.23C785.94 342.77 784.68 332.45 782.52 320.89C785.34 318.123 787.183 315.79 788.05 313.89C788.917 311.99 789.65 308.69 790.25 303.99C798.37 303.47 801.963 299.947 801.03 293.42C800.097 286.893 796.013 284.51 788.78 286.27" stroke="#1D252E" stroke-width="4" stroke-linecap="round" stroke-linejoin="round"/>
<path d="M743.06 280.05C737.82 289.69 735.973 297.793 737.52 304.36C741.473 317.54 748.663 324.76 759.09 326.02L762.22 355.57L751.28 355.99" stroke="#1D252E" stroke-width="4" stroke-linecap="round" stroke-linejoin="round"/>
<path d="M849.14 925.41C858.573 949.45 864.96 964.427 868.3 970.34C872.317 977.653 875.848 985.223 878.87 993L800.94 1029.33C800.318 1029.6 799.614 1029.62 798.982 1029.37C798.35 1029.12 797.842 1028.63 797.57 1028.01C797.397 1027.65 797.307 1027.25 797.307 1026.85C797.307 1026.46 797.397 1026.06 797.57 1025.7C818.937 983.16 828.757 960.033 827.03 956.32L819.14 937.57L847.14 922.31L849.14 925.41Z" fill="white"/>
<path d="M987.45 871C989.75 874.27 1025.74 890.66 1024.17 893.83C1022.6 897 963.12 973.73 964.17 958.23C965.22 942.73 970.35 895.55 964.47 890.07L951.88 873.58L975.62 853.24C975.62 853.24 985.92 868.8 987.45 871Z" fill="white"/>
<path d="M860.23 558.07L890.77 743.9L984.89 848.44C970.57 863.04 959.35 873.187 951.23 878.88C943.11 884.573 936.257 887.117 930.67 886.51L824.87 755.51L797.87 652.51C793.969 652.684 790.061 652.48 786.2 651.9C783.546 651.589 780.954 650.881 778.51 649.8L787.51 758.12L854.32 921.48C841.26 930.493 831.217 936.637 824.19 939.91C816.053 943.517 807.486 946.061 798.7 947.48L729.76 755.84L724.76 579.44L860.23 558.07Z" fill="#1D252E"/>
<path d="M797.36 281.94C794.08 280.632 790.467 280.408 787.05 281.3" stroke="#1D252E" stroke-width="4" stroke-linecap="round" stroke-linejoin="round"/>
<path d="M798.84 278.32C793.267 276.7 788.583 276.163 784.79 276.71C784.203 275.03 783.49 273.157 782.65 271.09C775.517 281.023 763.317 281.9 746.05 273.72C720.13 261.45 744.6 216.72 770.74 231.48C780.16 236.96 785.603 241.723 787.07 245.77C794.05 245.77 798.447 247.677 800.26 251.49C803.74 256.497 803.267 265.44 798.84 278.32Z" fill="#1D252E"/>
<path d="M672.45 328.51C657.71 286.51 642.11 245.64 634.13 231.02C631.94 225.02 632.13 220.53 632.69 214.76C633.25 208.99 633.45 196.33 628.43 184.94C623.41 173.55 606.43 160.34 604.62 182.24C603.44 196.827 606.773 213.08 614.62 231C626.68 298.56 641.92 348.21 653.56 356" fill="white"/>
<path d="M804 354.1C795.5 367.027 785.01 372.837 772.53 371.53C753.81 369.53 747.72 364.98 743.72 356.03C725.26 352.4 714.72 333.1 678.26 317.16C668 332.04 654 352.853 636.26 379.6L708.9 429.21C709.9 455.877 711.83 479.583 714.69 500.33C717.55 521.077 720.523 547.823 723.61 580.57C759.497 585.19 786.21 585.857 803.75 582.57C821.29 579.283 844.453 569.31 873.24 552.65L863.5 468.71L874.5 371.57C874.5 371.57 842.48 363.84 804 354.1Z" fill="#2BA4C9"/>
<path d="M627.15 196.09C622.41 187.83 618.837 185.497 616.43 189.09C614.023 192.683 616.237 202.46 623.07 218.42" fill="white"/>
<path d="M668.8 322.81C654.06 280.81 642.11 245.64 634.13 231.02C631.94 225.02 632.13 220.53 632.69 214.76C633.25 208.99 633.45 196.33 628.43 184.94C623.41 173.55 606.43 160.34 604.62 182.24C603.44 196.827 606.773 213.08 614.62 231C626.68 298.56 639.12 343.05 650.77 350.83" stroke="#1D252E" stroke-width="4" stroke-linecap="round" stroke-linejoin="round"/>
<path d="M627.15 196.09C622.41 187.83 618.837 185.497 616.43 189.09C614.023 192.683 616.237 202.46 623.07 218.42" stroke="#1D252E" stroke-width="4" stroke-linecap="round" stroke-linejoin="round"/>
<path d="M709.15 403.58C710.263 426.773 710.76 444.177 710.64 455.79" stroke="#1D252E" stroke-width="4" stroke-linecap="round" stroke-linejoin="round"/>
<path d="M977.24 856.44L987.45 871C989.75 874.27 1025.74 890.66 1024.17 893.83C1022.6 897 963.12 973.73 964.17 958.23C965.22 942.73 970.35 895.55 964.47 890.07" stroke="#1D252E" stroke-width="4" stroke-linecap="round" stroke-linejoin="round"/>
<path d="M849.14 925.41C858.573 949.45 864.96 964.427 868.3 970.34C872.317 977.653 875.848 985.223 878.87 993L800.94 1029.33C800.318 1029.6 799.614 1029.62 798.982 1029.37C798.35 1029.12 797.842 1028.63 797.57 1028.01C797.397 1027.65 797.307 1027.25 797.307 1026.85C797.307 1026.46 797.397 1026.06 797.57 1025.7C818.937 983.16 828.757 960.033 827.03 956.32" stroke="#1D252E" stroke-width="4" stroke-linecap="round" stroke-linejoin="round"/>
<path d="M921.35 424.15C921.35 424.15 932.8 457.34 936.77 466.72C941.77 478.56 924.19 490.49 924.19 490.49L814.28 548.1C814.28 548.1 762.22 562.78 762.22 537.1C762.22 511.42 816.16 521.37 816.16 521.37L891.4 460.1L881.5 442.63L918.21 415.79L921.35 424.15Z" fill="white"/>
<path d="M924.71 431.77C929 441.43 934.47 457.5 935.71 464.3C937.66 474.97 924.18 490.49 924.18 490.49L814.28 548.1C814.28 548.1 762.22 562.78 762.22 537.1C762.22 511.42 816.16 521.37 816.16 521.37L891.4 460.1L885.48 449.66" stroke="#1D252E" stroke-width="4" stroke-linecap="round" stroke-linejoin="round"/>
<path d="M895.57 468.73L883.67 445.96" stroke="#1D252E" stroke-width="4" stroke-linecap="round" stroke-linejoin="round"/>
<path d="M443.44 354.81L539 237.9C539 237.9 561.89 188.9 536.53 184.75C511.17 180.6 512.29 235.44 512.29 235.44L421.14 319" fill="white"/>
<path d="M449.88 348L539 237.9C539 237.9 561.89 188.9 536.53 184.75C511.17 180.6 512.29 235.44 512.29 235.44L433 314.14" stroke="#1D252E" stroke-width="4" stroke-linecap="round" stroke-linejoin="round"/>
<path d="M874.47 371.61C874.47 371.61 931.56 402.11 928.63 410.47C925.7 418.83 865.53 450.9 865.53 450.9L874.47 371.61Z" fill="#2BA4C9"/>
<path d="M349.52 360.56C349.52 360.56 407.52 316.81 426.1 313.15C429.46 312.48 446.02 355.52 446.02 355.52L370.52 401.81C351.67 400.37 345 369.21 349.52 360.56Z" fill="#2BA4C9"/>
<path d="M308.88 696.09C308.27 695.2 310.34 677.8 310.34 677.8" stroke="#1D252E" stroke-width="4" stroke-linecap="round"/>
<path d="M413.16 372.46L370.93 402.28L365.17 425.42" stroke="#1D252E" stroke-width="4" stroke-linecap="round"/>
<path d="M451.29 419.31V447.17" stroke="#1D252E" stroke-width="4" stroke-linecap="round"/>
<path d="M865.53 429.68L863.94 472.44" stroke="#1D252E" stroke-width="4" stroke-linecap="round"/>
</svg>
