<svg width="1200" height="1200" viewBox="0 0 1200 1200" fill="none" xmlns="http://www.w3.org/2000/svg">
<path d="M554.71 568.01L251.46 889.71L911.67 764.39L554.71 568.01Z" stroke="#E9E8E8" stroke-width="4" stroke-miterlimit="10"/>
<path d="M916.34 342.92L297.7 319.07L554.71 568.01L916.34 342.92ZM916.34 342.92L911.67 764.39" stroke="#E9E8E8" stroke-width="4" stroke-miterlimit="10"/>
<path d="M297.7 319.07L251.45 889.7" stroke="#E9E8E8" stroke-width="4" stroke-miterlimit="10"/>
<path d="M288.59 416.96C349.236 416.96 398.4 367.796 398.4 307.15C398.4 246.504 349.236 197.34 288.59 197.34C227.944 197.34 178.78 246.504 178.78 307.15C178.78 367.796 227.944 416.96 288.59 416.96Z" fill="#E9E8E8"/>
<path d="M309.29 258.11C311.197 250.55 310.65 244.673 307.65 240.48C303.14 234.19 292.32 226.17 277 228.58C261.68 230.99 250 245.06 247.15 260.25C245.243 270.41 246.48 281.19 250.86 292.59C253.667 296.263 256.57 298.07 259.57 298.01C264.07 297.91 273.13 295.41 276.09 292.08C278.07 289.853 289.137 278.53 309.29 258.11Z" fill="#1D252E"/>
<path d="M307.31 258.15L311.7 269.15L310.62 282.15L304.33 291.68L297.33 296.2L297.63 319.06L314.87 319.33L307.87 334.33C297.3 340.26 284.81 341.53 271.36 340.39L250.36 321.44L276.17 317.58L277.42 296.58L270.5 288L267.2 279.68L261.52 279.17L259.59 270.28L263.59 265.67L271.04 263.91L275.65 255.59L274.52 248.72L295 258.41L307.31 258.15Z" fill="white"/>
<path d="M307.31 258.15C311.312 264.643 312.709 272.41 311.22 279.89C309.78 287.543 304.903 292.983 296.59 296.21L297.7 319.07L307.9 319.23" stroke="#1D252E" stroke-width="2" stroke-linecap="round" stroke-linejoin="round"/>
<path d="M306.92 257.36C305.087 258.693 301.39 258.77 295.83 257.59C290.27 256.41 283.153 253.443 274.48 248.69C275.632 251.684 275.689 254.988 274.64 258.02C273.761 260.938 271.871 263.448 269.31 265.1C264.57 263.987 261.59 265.283 260.37 268.99C258.53 274.53 260.49 278.99 262.37 279.75C263.945 280.241 265.637 280.206 267.19 279.65C267.19 282.47 268.557 285.683 271.29 289.29C274.023 292.897 276.04 294.843 277.34 295.13L277 317.78L262.09 319.5" stroke="#1D252E" stroke-width="2" stroke-linecap="round" stroke-linejoin="round"/>
<path d="M298.86 295.17C297.215 296.151 295.394 296.8 293.5 297.08C290.715 297.521 287.874 297.46 285.11 296.9" stroke="#1D252E" stroke-width="2" stroke-linecap="round" stroke-linejoin="round"/>
<path d="M260.69 300.31C259.27 300.769 257.747 300.801 256.31 300.4C254.55 300.01 252.58 298.6 250.38 296.17" stroke="#1D252E" stroke-width="2" stroke-linecap="round" stroke-linejoin="round"/>
<path d="M260.25 303.2C259.17 303.767 257.263 303.807 254.53 303.32C251.797 302.833 249.567 301.143 247.84 298.25C245.593 298.303 243.41 300.527 241.29 304.92C238.11 311.51 240.34 319.71 237.72 324.1C235.535 327.441 232.622 330.244 229.2 332.3C242.333 333.633 251.087 330.547 255.46 323.04C259.833 315.533 261.43 308.92 260.25 303.2Z" fill="#1D252E"/>
<path d="M257.51 466.53L240.8 479.36L235.62 483.31C236.1 481.87 236.62 480.56 237.05 479.36L237.21 478.96C239.977 472.18 246.743 468.037 257.51 466.53Z" fill="#1D252E"/>
<path d="M352.79 401.1C367.283 411.7 376.853 415.667 381.5 413C386.15 410.36 439.95 388.42 439.95 388.42C439.95 388.42 447.39 387.6 450.11 387.55C458.27 387.41 472.69 374.74 466.49 370.89C463.72 369.17 449.49 366.34 444.41 367.4C442.91 367.71 438.76 362 436.58 363.2C433.88 364.7 432.98 373.36 429.24 376.2L376.53 379.31L368.09 375.36L352.79 401.1Z" fill="white"/>
<path d="M432.9 373.57C431.74 374.39 430.52 375.29 429.24 376.27L376.53 379.38" stroke="#1D252E" stroke-width="2" stroke-linecap="round" stroke-linejoin="round"/>
<path d="M362.55 407.69C371.67 413.23 377.987 415 381.5 413C386.15 410.36 439.95 388.42 439.95 388.42C439.95 388.42 445.06 388.17 450.11 387.55C455.16 386.93 472.77 376.19 466.49 370.89C460.21 365.59 449.49 366.34 444.41 367.4C443.469 367.613 442.551 367.917 441.67 368.31" stroke="#1D252E" stroke-width="2" stroke-linecap="round" stroke-linejoin="round"/>
<path d="M371.7 372.56L369.77 376.19L355.5 403L353.5 406.7L352.98 407.7L350.67 405.88L324.76 385.39C323 386.39 321.14 403.04 321.14 403.04C321.14 403.04 321.48 405.92 322.02 410.58C322.52 414.88 323.2 420.69 323.94 427.15C324.8 434.6 325.76 442.92 326.64 450.77H278L257.53 466.53L240.8 479.36H235.8C235.8 479.36 236.36 440.28 235.33 404.36C235.28 402.75 235.24 401.16 235.18 399.57C233.18 395.05 231.41 390.62 229.91 386.33C227.838 380.589 226.079 374.741 224.64 368.81V368.81C221.56 355.97 220.84 345.56 221.76 339.29C221.962 337.807 222.38 336.362 223 335C226.59 327.46 238.08 323.66 252.69 320.33C265.08 319.62 275.75 339.83 291.21 338.71C303.57 337.71 307.93 319.21 312.7 317.23C317.47 315.25 347.26 338.4 371.7 372.56Z" fill="#2BA4C9"/>
<path d="M240.67 414.58C244.91 432.02 249.9 440.41 254.89 442.25C259.88 444.09 328.41 426 328.41 426C328.41 426 336.49 426.83 338.56 425.07C340.63 423.31 353.93 410.29 354.86 408.33C356.25 405.38 337.79 403.86 332.76 404.95C329.427 405.677 324.387 408.65 317.64 413.87L277.23 416.55L270.83 403.09L240.67 414.58Z" fill="white"/>
<path d="M243.31 424C246.9 435.11 250.88 440.76 254.89 442.22C259.89 444.05 328.41 426 328.41 426C328.41 426 336.49 426.82 338.56 425.07C340.63 423.32 353.93 410.29 354.86 408.33C356.25 405.33 337.79 403.86 332.76 404.95C329.427 405.67 324.387 408.64 317.64 413.86L277.23 416.55L273.42 408.55" stroke="#1D252E" stroke-width="2" stroke-linecap="round" stroke-linejoin="round"/>
<path d="M239.89 419.42L274.16 404.64C261.92 368.54 262.09 350.89 259.52 344.87C256.95 338.85 245.09 323.7 231.36 328.23C217.63 332.76 220.47 354.05 222.14 360.16C223.81 366.27 239.89 419.42 239.89 419.42Z" fill="#2BA4C9"/>
<path d="M321.6 364.17C326.29 370.96 327.68 382.84 322.1 394.48" stroke="#1D252E" stroke-width="2" stroke-linecap="round" stroke-linejoin="round"/>
<path d="M441.55 369C441.12 366.42 440.06 361.35 435.92 363.37C431.78 365.39 434.99 372.37 432.62 373.91" stroke="#1D252E" stroke-width="2" stroke-linecap="round" stroke-linejoin="round"/>
<path d="M263.21 370.92C270.45 380.71 270.83 403.11 270.83 403.11" stroke="#1D252E" stroke-width="2" stroke-linecap="round" stroke-linejoin="round"/>
<path d="M916.33 452.73C976.976 452.73 1026.14 403.566 1026.14 342.92C1026.14 282.274 976.976 233.11 916.33 233.11C855.684 233.11 806.52 282.274 806.52 342.92C806.52 403.566 855.684 452.73 916.33 452.73Z" fill="#E9E8E8"/>
<path d="M878.21 402.89C882.06 423.68 886.4 428.7 857.21 473.55C852.09 481.43 843.28 497.92 831.73 513.32C820.18 528.72 821.28 490.09 832.06 482.39C842.84 474.69 854.3 424.91 850.45 406.39L878.21 402.89Z" fill="white"/>
<path d="M849.73 486.85C844.225 496 838.216 504.837 831.73 513.32C820.18 528.72 822.17 487.38 832.95 479.68C841.3 473.68 849.95 446.91 851.6 426.55" stroke="#1D252E" stroke-width="2" stroke-linecap="round" stroke-linejoin="round"/>
<path d="M877.77 356.67C858.86 357.5 843 396.48 838.77 411.34C834.54 426.2 877.18 420.6 877.18 420.6L883.86 384.37C883.86 384.37 896.68 355.83 877.77 356.67Z" fill="#2BA4C9"/>
<path d="M935.15 355.75L922.52 352.52L922.77 328.4L927.5 323.12L929.77 315.33L935.77 314.84L938.93 309.28L937.44 303.24L935.61 301.4L938.36 291L898.56 287.1L896.2 288.35L890.67 298.57L887.57 310.23L889.82 320.29L894.25 326.54L900.71 330.94L903.16 330.74L902.49 354.18L885.2 354.12L901.8 371.51L936.04 371L935.15 355.75Z" fill="white"/>
<path d="M930.16 354.14L922.67 353.53L922.77 328.4C922.77 328.4 926.77 324.58 927.5 323.12C928.584 320.648 929.33 318.041 929.72 315.37C936.193 315.37 939.213 312.747 938.78 307.5C938.347 302.253 935.223 300.163 929.41 301.23" stroke="#1D252E" stroke-width="2" stroke-linecap="round" stroke-linejoin="round"/>
<path d="M893.44 294.08C888.807 301.48 886.947 307.813 887.86 313.08C890.36 323.747 895.72 329.823 903.94 331.31L902.49 354.14L893.78 354.04" stroke="#1D252E" stroke-width="2" stroke-linecap="round" stroke-linejoin="round"/>
<path d="M936.44 298.2C933.9 297.005 931.044 296.654 928.29 297.2" stroke="#1D252E" stroke-width="2" stroke-linecap="round" stroke-linejoin="round"/>
<path d="M937.79 295.4C934.278 293.975 930.509 293.294 926.72 293.4C926.33 292.04 925.86 290.52 925.29 288.84C919.15 296.38 909.423 296.487 896.11 289.16C876.11 278.16 897.72 243.85 917.75 256.82C924.963 261.66 929.047 265.72 930 269C935.54 269.347 938.94 271.073 940.2 274.18C942.733 278.34 941.93 285.413 937.79 295.4Z" fill="#1D252E"/>
<path d="M852.62 491.27H943.12C941.75 493.875 939.87 496.178 937.59 498.04C935.457 499.807 933.806 502.084 932.79 504.66H933.27C940.91 505 947.97 505.19 953.8 505.2H954.57C955.64 503.35 956.63 501.55 957.57 499.71C958.1 498.54 958.57 497.38 959.12 496.25C960.12 494.6 961.02 493.13 961.83 491.88L962.24 491.24H966.33C966.03 489.51 965.76 487.75 965.55 485.95C965.41 484.85 965.29 483.74 965.18 482.61C963.84 468.31 964.71 451.95 965.07 435C965.17 430.83 965.23 426.62 965.2 422.41V420C965.03 403.43 963.65 386.73 958.59 371.2C956.47 364.72 953.92 361.15 951.14 359.2C946.14 355.6 940.38 357.09 935.14 355.82L934.26 355.58C927.407 364.913 919.333 368.87 910.04 367.45C908.7 367.24 907.45 367.01 906.28 366.78C895.28 364.54 891.44 360.96 889.04 354.78C885.681 353.919 882.163 353.885 878.788 354.681C875.413 355.477 872.281 357.079 869.66 359.35V359.35C865.813 362.558 862.714 366.568 860.58 371.1C857.71 377.1 858.1 393.1 858.9 405.38C859.48 414.02 860.26 420.78 860.26 420.78C860.26 421.07 860.26 421.37 860.26 421.67C859.86 436.67 854.26 464.12 852.8 480.87C852.395 484.322 852.335 487.806 852.62 491.27V491.27Z" fill="#2BA4C9"/>
<path d="M934.79 533.53L935.01 533.31L935.09 533.22L935.4 532.89C935.6 532.66 935.81 532.41 936.02 532.14L936.37 531.69C942.628 523.17 948.445 514.335 953.8 505.22C955.8 501.9 957.58 498.87 959.15 496.28C960.15 494.63 961.05 493.16 961.86 491.91L962.27 491.27C963.43 489.47 964.533 487.707 965.58 485.98C970.777 477.555 975.154 468.651 978.65 459.39C981.736 451.36 983.6 442.913 984.18 434.33V434.33C984.602 427.67 983.83 420.988 981.9 414.6C981.67 413.83 981.44 413.13 981.23 412.48L965.23 420.03L957.15 423.83L955.09 424.83C958 439 952 471.47 944.18 489.37C943.9 490.02 943.61 490.65 943.32 491.25C941.18 495.77 938.93 499.15 936.71 500.74C935.317 501.805 934.151 503.138 933.28 504.66C932.327 506.259 931.54 507.951 930.93 509.71C930.93 509.71 930.93 509.71 930.93 509.71C926.37 522.37 927.29 541.1 934.79 533.53Z" fill="white"/>
<path d="M983 418.19C984.74 423.33 986.11 426.19 984.2 434.32C983.07 439.06 980.82 445.58 976.86 455.37C973.98 462.51 970.17 471.37 965.23 482.63C964.017 485.363 962.74 488.24 961.4 491.26C960.68 492.887 959.937 494.553 959.17 496.26C958.66 497.39 958.17 498.55 957.62 499.72C956.62 501.56 955.62 503.36 954.62 505.21C950.62 512.07 945.52 519.53 936.42 531.67L936.07 532.12C935.86 532.39 935.65 532.64 935.45 532.87L935.14 533.2L935.06 533.29L934.84 533.51C927.84 540.44 927.04 522.91 930.95 509.76C931.453 508.028 932.078 506.334 932.82 504.69C933.836 502.114 935.487 499.837 937.62 498.07C939.9 496.208 941.78 493.905 943.15 491.3C943.51 490.7 943.86 490.08 944.15 489.42C952.33 473.93 958.78 444.19 955.73 429.52" stroke="#1D252E" stroke-width="2" stroke-linecap="round" stroke-linejoin="round"/>
<path d="M952.12 359.43C960.32 363.05 989.98 402.17 984.35 411.72C978.72 421.27 953.17 425.15 953.17 425.15L928.17 390.01C928.17 390.01 943.93 355.8 952.12 359.43Z" fill="#2BA4C9"/>
<path d="M936.42 395.79C944.78 409.26 949.88 417.15 950.35 424.12" stroke="#1D252E" stroke-width="2" stroke-linecap="round" stroke-linejoin="round"/>
<path d="M872.78 376.64C867.29 392.26 859.62 414.2 860.71 424.64" stroke="#1D252E" stroke-width="2" stroke-linecap="round" stroke-linejoin="round"/>
<path d="M864.57 454.7C874.89 466.2 869.29 476.23 879.02 480.95" stroke="#1D252E" stroke-width="2" stroke-linecap="round" stroke-linejoin="round"/>
<path d="M948.45 910.15C1009.1 910.15 1058.26 860.986 1058.26 800.34C1058.26 739.694 1009.1 690.53 948.45 690.53C887.804 690.53 838.64 739.694 838.64 800.34C838.64 860.986 887.804 910.15 948.45 910.15Z" fill="#E9E8E8"/>
<path d="M877.66 824.83C877.66 824.83 870.21 839.56 865.66 846.62C860.66 847.24 808.82 872.26 804.5 877.01C802.01 878.093 799.37 878.791 796.67 879.08C796.67 879.08 784.26 898.49 784.45 900.18C784.64 901.87 800.14 902.18 805.77 898.08C811.4 893.98 817.7 886.21 817.7 886.21L892.23 845.34L877.66 824.83Z" fill="white"/>
<path d="M871.23 866.58L817.67 886.21C812.663 892.65 808.687 896.607 805.74 898.08C801.33 900.28 783.82 903.26 784.42 900.18C784.82 898.14 788.873 891.217 796.58 879.41" stroke="#1D252E" stroke-width="2" stroke-linecap="round"/>
<path d="M796.64 879.08L804.47 877.01C804.47 877.01 856.76 846.22 865.63 846.62C869.05 842.16 860.22 835.11 869.84 829.22" fill="white"/>
<path d="M796.64 879.08L804.47 877.01C804.47 877.01 856.76 846.22 865.63 846.62C869.05 842.16 860.22 835.11 869.84 829.22" stroke="#1D252E" stroke-width="2" stroke-linecap="round"/>
<path d="M1018.45 927.22L900.65 941.22C898.2 921.3 895.57 875.17 899.11 864.81C898.27 861.51 825.74 897.06 824.65 892.45C822.32 882.33 816 867.21 812 859C813.53 858.54 889.56 806 912.47 800.93C922.99 820.15 939.62 817.39 963.15 800.46C985.33 797.73 1009.4 804.22 1012.33 824.87C1018.31 863.12 1018 882.54 1018.45 927.22Z" fill="#1D252E"/>
<path d="M929.322 774.825C941.855 774.221 951.317 759.246 950.456 741.379C949.594 723.511 938.736 709.516 926.202 710.12C913.669 710.724 904.207 725.699 905.069 743.567C905.93 761.434 916.788 775.429 929.322 774.825Z" fill="white"/>
<path d="M1006.93 808.19C991.86 793.42 981.06 742.72 973.85 728.81C960.1 702.26 934.53 701.29 921.91 703.81C914.08 705.37 906.42 719.99 905.24 724.47C901.31 739.47 901.66 750.02 907.66 763.47C912.17 773.6 910.35 802.53 894.24 806.23C884.31 808.52 880.11 812.12 880.24 816.23C880.47 824.73 899.67 835.23 924.97 839.7C934.883 841.404 944.996 841.61 954.97 840.31C959.17 839.79 963.14 839.07 966.88 838.31L969.63 837.68H969.79C977.65 835.83 984.3 833.68 989.48 832.6C989.74 832.54 989.99 832.48 990.25 832.44C992.317 831.939 994.444 831.727 996.57 831.81L997.14 831.88C997.834 831.957 998.51 832.149 999.14 832.45C1001.45 833.6 1007.96 830.31 1010.88 824.78C1010.91 824.747 1010.93 824.71 1010.94 824.67C1011.31 823.974 1011.61 823.244 1011.83 822.49C1013 818.32 1012.21 813.36 1006.93 808.19ZM919 772C915.834 770.268 913.281 767.599 911.69 764.36V764.36C907.06 755.68 906.57 742.58 907.3 731.84C907.502 727.571 908.906 723.446 911.35 719.94C918.92 709.43 935.17 709.28 944.11 721.26C945.943 723.732 947.364 726.484 948.32 729.41C950.49 735.86 951.57 745.94 948.2 754.96C945.05 763.4 938.01 770.91 924.35 773.66C923.171 773.508 922.012 773.234 920.89 772.84V772.84C920.281 772.622 919.686 772.365 919.11 772.07L919 772Z" fill="#2BA4C9"/>
<path d="M963.35 809.3C970.88 806.98 974.73 812.86 989.08 802.62" stroke="#1D252E" stroke-width="2" stroke-linecap="round"/>
<path d="M998 831.9C985.78 829.98 990.11 836.72 973 837.29" stroke="#1D252E" stroke-width="2" stroke-linecap="round"/>
<path d="M929.52 789.6C939.98 780.72 954.1 783.95 959.62 771.11" stroke="#1D252E" stroke-width="2" stroke-linecap="round"/>
<path d="M945.78 724C950.98 734.37 956.36 770.16 924.34 774.14C918.59 773.9 900.99 762.9 909.68 722.79" stroke="#1D252E" stroke-width="2" stroke-linecap="round"/>
<path d="M911.06 720.1C919.06 715.78 928.58 715.32 944.06 721.27C946.13 720.6 936.76 710.83 925.83 711.53C914.9 712.23 910 719.19 911.06 720.1Z" fill="#1D252E"/>
<path d="M900.85 879.11C900.59 882.88 871.14 880.84 871.4 877.06L873.7 843.92C873.754 843.151 874.11 842.435 874.692 841.929C875.273 841.423 876.031 841.168 876.8 841.22L900.45 842.86C901.219 842.914 901.935 843.27 902.441 843.852C902.947 844.433 903.202 845.191 903.15 845.96L900.85 879.11Z" fill="#2BA4C9"/>
<path d="M899.31 850.93L904.63 851.3C905.953 851.391 907.244 851.743 908.431 852.333C909.618 852.924 910.677 853.743 911.547 854.743C912.417 855.743 913.082 856.905 913.503 858.163C913.923 859.42 914.093 860.747 914 862.07V862.07C913.813 864.74 912.573 867.227 910.554 868.984C908.535 870.741 905.9 871.624 903.23 871.44L896.8 871" stroke="#1D252E" stroke-width="2" stroke-linecap="round"/>
<path d="M954.71 862.83C946.157 862.253 937.661 861.013 929.3 859.12C923.93 858.12 919.71 857.61 917.62 856.39C914.9 853.55 906.95 846.21 902.62 860.08C898.29 873.95 907.55 872.62 914.42 873.9C921.29 875.18 931.23 874.49 931.23 874.49L953.39 874.9" fill="white"/>
<path d="M1003.49 848C993.86 844.88 940.37 848.33 934.49 850.51C928.61 852.69 930.24 873.01 924.49 881.65C922.38 884.84 995.36 897.54 1000.98 891.5C1012.79 878.92 1013.12 851.14 1003.49 848Z" fill="#1D252E"/>
<path d="M993.92 810.79C999.17 826.17 1009.06 847.32 1007.92 854.79C1007.22 859.25 993.11 859.42 986.38 861.64C981.83 863.14 977.64 868.36 977.64 868.36C977.64 868.36 966.01 822.86 954.54 820.3C943.07 817.74 993.92 810.79 993.92 810.79Z" fill="#2BA4C9"/>
<path d="M557.48 664.27C618.126 664.27 667.29 615.106 667.29 554.46C667.29 493.814 618.126 444.65 557.48 444.65C496.834 444.65 447.67 493.814 447.67 554.46C447.67 615.106 496.834 664.27 557.48 664.27Z" fill="#E9E8E8"/>
<path d="M625.48 590.21L620.26 593.21L605.26 601.79L600.31 617.41L600.12 618.01C599.95 618.1 599.89 619.01 599.92 620.62C599.92 624.19 600.47 631.06 601.16 638.99C601.155 639.043 601.155 639.097 601.16 639.15C601.79 646.42 602.57 654.59 603.28 661.92C603.28 662.07 603.28 662.22 603.34 662.38C603.72 666.26 604.08 669.9 604.41 673.05H508.75C509.88 666.37 511 657.94 509.75 651.16C509.75 651.06 509.75 650.96 509.69 650.86C508.19 643.42 503.69 638.03 493.02 639.24H492.88C492.38 639.3 491.88 639.36 491.35 639.45C490.63 633.7 490 628.4 489.45 623.45C484.78 581.94 486.04 569.38 491.85 560.23C499.11 548.81 503.64 546.76 519.19 546.36C520.25 546.88 521.29 547.36 522.3 547.82C539.88 555.69 549.61 553.66 556.56 549.96C560.94 547.61 565.42 545.25 568.49 542.43C570.498 540.801 571.863 538.512 572.34 535.97C587.6 534.31 594.95 536.58 601.45 544.78C607.95 552.98 609.11 559.5 625.48 590.21Z" fill="#2BA4C9"/>
<path d="M595.54 569.66C601.147 579.353 603.777 589.077 603.43 598.83C603.083 608.583 600.75 615.807 596.43 620.5L598 652.79" stroke="#1D252E" stroke-width="2" stroke-linecap="round"/>
<path d="M571.6 468.87C572.38 460.557 570.833 454.433 566.96 450.5C561.16 444.59 546.11 436.98 530.3 442.05C514.49 447.12 506.77 464.8 506.3 481.37C505.95 492.42 511.65 505.03 517.3 510.37C522.95 515.71 536.17 514.37 538.75 510.37C540.4 507.66 553.65 493.77 571.6 468.87Z" fill="#1D252E"/>
<path d="M557.9 509.34V523.55L558.68 537.61L571.39 538.91C570.632 540.258 569.652 541.469 568.49 542.49C565.42 545.31 560.94 547.67 556.56 550.02C549.61 553.73 539.88 555.75 522.3 547.88L521.09 547.33L535.35 543.06L535.43 511.06C536.14 498.53 530.21 491.83 525.82 491.83C523.781 490.202 522.359 487.928 521.788 485.382C521.217 482.837 521.532 480.172 522.68 477.83C525.98 471.23 533.52 478.24 534.68 474.21C539.22 459.42 549.78 464.84 554.92 469.42C564.09 455.18 569.52 468.91 569.52 468.91L573.95 480.82L572.48 494.67L565.48 504.67L557.9 509.34Z" fill="white"/>
<path d="M569.49 468.87C573.596 475.908 574.899 484.234 573.14 492.19C571.4 500.337 566.047 506.037 557.08 509.29L558.65 537.61L569.53 537.96" stroke="#1D252E" stroke-width="2" stroke-linecap="round"/>
<path d="M559.53 508.26C557.753 509.274 555.791 509.923 553.76 510.17C550.76 510.571 547.714 510.439 544.76 509.78" stroke="#1D252E" stroke-width="2" stroke-linecap="round"/>
<path d="M517.59 445.82C517.59 439.34 508.01 428.36 497.87 441.03C487.73 453.7 480.97 467.51 501.25 468.91C521.53 470.31 517.59 445.82 517.59 445.82Z" fill="#1D252E"/>
<path d="M521.93 545.09L536.24 542.26C536.24 542.26 535.16 524.65 535.24 516.26" stroke="#1D252E" stroke-width="2" stroke-linecap="round"/>
<path d="M527.75 479.25C523.69 478.5 524.14 487.08 527.75 486.78" stroke="#1D252E" stroke-width="2" stroke-linecap="round"/>
<path d="M694.93 560.8L681.7 582.38L673.6 584.55L627.72 629.51L617.53 636.24L610.32 634.6L600.35 617.39L605.3 601.79L620.26 593.21L626.71 600.49L660.98 574.12L671.06 563.46L685.07 560.03L694.93 560.8Z" fill="white"/>
<path d="M624.54 598.36L626.95 600.55L660.48 574.78C665.78 568.387 669.95 564.493 672.99 563.1C677.54 561 695.44 558.54 694.73 561.65C694.257 563.723 689.923 570.633 681.73 582.38" stroke="#1D252E" stroke-width="2" stroke-linecap="round"/>
<path d="M601.75 623.3C607.75 631.967 612.73 636.12 616.69 635.76C621.87 635.26 640.84 618.19 673.6 584.55L681.6 582.7" stroke="#1D252E" stroke-width="2" stroke-linecap="round"/>
<path d="M520.77 611.61L522.23 616.32L587.33 637.74L604.54 639.27L617.95 649.72L624.44 659.38L594.84 662.92L586.91 657.03L500.94 650.48L494.01 645.22L488.48 612.64L520.77 611.61Z" fill="white"/>
<path d="M521 613L522.51 616.53L586.4 637.79C596.18 638.023 602.827 639.023 606.34 640.79C611.61 643.47 626.95 658.21 623.57 659.79C621.31 660.87 611.747 661.903 594.88 662.89" stroke="#1D252E" stroke-width="2" stroke-linecap="round"/>
<path d="M488.51 615.84C490.55 636.347 494.473 647.587 500.28 649.56C506.08 651.56 531.89 651.34 586.91 657.03L594.48 663.09" stroke="#1D252E" stroke-width="2" stroke-linecap="round"/>
<path d="M251.58 1002.63C312.226 1002.63 361.39 953.466 361.39 892.82C361.39 832.174 312.226 783.01 251.58 783.01C190.934 783.01 141.77 832.174 141.77 892.82C141.77 953.466 190.934 1002.63 251.58 1002.63Z" fill="#E9E8E8"/>
<path d="M256.44 837.1C269.62 846.43 278.05 860.24 273.73 868.52C269.41 876.8 268.8 877.28 260.61 882.11C261.8 896.68 265.61 904.01 265.61 904.01C265.61 904.01 282.61 899.89 285.61 904.22C288.61 908.55 274.74 923.7 262.88 926.1C251.02 928.5 231.69 921.83 230.04 915.46C229.9 909.46 245.73 907.38 245.73 907.38L242 885.57C242 885.57 232.21 880.24 231.23 871.38C225.05 871.68 218.4 868.44 220.42 862.74C221.626 859.637 222.039 856.282 221.62 852.98C221.62 852.98 222 842.67 228.71 840.98C235.42 839.29 256.44 837.1 256.44 837.1Z" fill="white"/>
<path d="M238.43 909.47L245.66 907.38L242 885.57C233.8 883.34 232.65 874.87 231.23 871.38C224.89 872.64 221.41 870.667 220.79 865.46C220.17 860.253 222.817 857.587 228.73 857.46" stroke="#1D252E" stroke-width="2" stroke-linecap="round" stroke-linejoin="round"/>
<path d="M262.75 841.48C269.29 843.86 286.15 871.84 259.62 881.92L265.57 904L274.08 902.18" stroke="#1D252E" stroke-width="2" stroke-linecap="round" stroke-linejoin="round"/>
<path d="M219.91 858.12C223.91 855.74 226.12 854.31 229.17 853.95C229.28 852.54 228.08 847.57 228.31 845.81C232.76 847.93 260.47 842.34 262.23 838.96C260.93 824.72 253.53 818.64 244.39 818.59C232.39 818.53 217.78 827.82 215.45 831.69C211.36 838.5 213.85 849.16 219.91 858.12Z" fill="#1D252E"/>
<path d="M216.82 1029.49C220.33 1038.25 223.71 1045.97 226.44 1051.96L343.1 1028.36C342.9 1019.18 331.1 980.79 325.8 952.06C325.65 951.25 325.51 950.46 325.36 949.67C325.365 949.62 325.365 949.57 325.36 949.52C323.77 940.52 322.89 932.52 323.36 927.03V926.65C323.36 925.99 323.5 925.38 323.6 924.79C323.785 923.692 324.121 922.625 324.6 921.62V921.62C324.834 921.126 325.137 920.668 325.5 920.26C328.37 917.11 328.82 914.1 327.8 911.2C325.44 904.45 315.16 898.36 309.32 892.56C308.532 891.794 307.8 890.972 307.13 890.1L306.9 890.22C295.54 896.33 291.23 896.07 278.9 901.93L278.84 902.26C277.54 909.26 273.84 913.7 260.84 918.52C252.21 921.72 243.23 917.85 234.84 910.37L234.28 909.86C228.28 913.13 209.78 914.95 200.9 924.93C198.279 927.858 196.639 931.533 196.21 935.44C195.963 937.6 195.81 939.83 195.75 942.13C195 968.61 206.46 1003.6 216.82 1029.49Z" fill="#1D252E"/>
<path d="M175.5 990.59L182.68 1001.04L205.68 1034.54L207.45 1037.12L215.25 1048.47L220.25 1053.2L243.25 1048.55L241.06 1044.79L238.81 1040.93L234.2 1033.03L226.15 1019.22L212.38 995.61L217.38 978.91L226.55 961.11C227.15 954.34 223.49 948.25 217.55 944.53C213.119 941.812 207.972 940.495 202.78 940.75C200.309 940.814 197.866 941.288 195.55 942.15C194.296 942.627 193.101 943.248 191.99 944C186.55 947.69 183.72 954.17 181.19 961.75C181.05 962.17 180.9 962.59 180.77 963.01L175.5 990.59Z" fill="#2BA4C9"/>
<path d="M207.49 1037.12L215.29 1048.47L220.31 1053.2H220.32" stroke="#1D252E" stroke-width="2" stroke-linecap="round" stroke-linejoin="round"/>
<path d="M234.19 944.88C224.75 932.38 210.48 914.34 200.11 925.64C189.74 936.94 185.91 946.78 185.91 946.78C185.91 946.78 165.91 988.78 171.17 997.12C173.42 1000.68 194.79 1037.05 201.45 1035.67C209 1034.1 225.06 1028.05 226.98 1016.36C227.98 1010.03 215.12 993.25 216.78 994.68C226.76 979.68 234.19 944.88 234.19 944.88Z" fill="#1D252E"/>
<path d="M342.85 886.33C342.377 888.438 341.585 890.461 340.5 892.33C333.12 889.6 325.66 887.11 318.1 884.95L319.76 883.53L312 808.1C309.36 794.46 300.18 776.1 311.18 767.7C322.18 759.3 323.25 806.14 323.25 806.14C323.25 806.14 344.42 876 342.85 886.33Z" fill="#2BA4C9"/>
<path d="M333.2 840.64C328.25 822.49 323.2 806.14 323.2 806.14C323.2 806.14 322.13 759.33 311.13 767.7C300.13 776.07 309.31 794.46 311.95 808.1L315.45 841.96" stroke="#1D252E" stroke-width="2" stroke-linecap="round" stroke-linejoin="round"/>
<path d="M314.13 847C314.76 857.13 318.9 881.05 310.34 887.73C301.78 894.41 285.48 900.27 285.48 900.27C285.48 900.27 310.23 921.18 312.08 930.35C313.93 939.52 344 897.77 345 884.78C346 871.79 337.42 845.13 337.42 845.13L314.13 847Z" fill="#1D252E"/>
</svg>
