<svg width="1200" height="1200" viewBox="0 0 1200 1200" fill="none" xmlns="http://www.w3.org/2000/svg">
<path d="M379.82 467.29C480.4 392.45 707.76 193.21 856.58 309.14C1005.4 425.07 1007.74 981.74 607.38 921.8C456.98 899.28 232.67 886.85 192.1 817.8C124.69 702.94 317 514 379.82 467.29Z" fill="#E9E8E8"/>
<path d="M576.65 725.29C575.55 726.623 574.367 727.913 573.1 729.16C573.1 729.16 399 905.59 355.7 930.36C312.4 955.13 437.17 839.56 401.62 863.08C366.07 886.6 449.62 787.76 427.05 802.52C404.48 817.28 427.51 771.45 427.51 771.45C324.85 881.1 383.09 783.25 365.71 792.76C348.33 802.27 368.4 767.76 359.94 776C351.48 784.24 267.07 863 220.06 896.26C173.05 929.52 469.94 626 469.94 626C470.56 625.39 471.18 624.8 471.8 624.22C471.8 624.22 495.44 593.48 550.55 648.6C605.66 703.72 576.65 725.29 576.65 725.29Z" fill="white"/>
<path d="M580.33 721.06C579.343 722.662 578.1 724.09 576.65 725.29C575.55 726.623 574.367 727.913 573.1 729.16C573.1 729.16 399 905.59 355.7 930.36C312.4 955.13 437.17 839.56 401.62 863.08C366.07 886.6 449.62 787.76 427.05 802.52C404.48 817.28 427.51 771.45 427.51 771.45C324.85 881.1 383.09 783.25 365.71 792.76C348.33 802.27 368.4 767.76 359.94 776C351.48 784.24 267.07 863 220.06 896.26C173.05 929.52 469.94 626 469.94 626C470.56 625.39 471.18 624.8 471.8 624.22C473.112 622.683 474.649 621.355 476.36 620.28" stroke="#1D252E" stroke-width="4" stroke-linecap="round" stroke-linejoin="round"/>
<path d="M584.94 858L569.94 843.05C610.75 806.78 668.32 738.48 670.42 687.79L779.67 578.6C784.617 583.545 791.325 586.323 798.32 586.323C805.315 586.323 812.023 583.545 816.97 578.6L821.57 583.2C824.623 586.252 827.045 589.876 828.697 593.865C830.349 597.853 831.2 602.128 831.2 606.445C831.2 610.762 830.349 615.037 828.697 619.025C827.045 623.014 824.623 626.638 821.57 629.69L717 734.31L584.94 858Z" fill="#2BA4C9"/>
<path d="M342 615.06L356.95 630.06C393.22 589.25 461.52 531.68 512.21 529.58L622.27 419.46C619.935 417.125 618.082 414.354 616.818 411.303C615.554 408.252 614.903 404.982 614.903 401.68C614.903 398.378 615.554 395.108 616.818 392.057C618.082 389.006 619.935 386.235 622.27 383.9L616.8 378.43C613.748 375.377 610.124 372.955 606.135 371.303C602.147 369.651 597.872 368.8 593.555 368.8C589.238 368.8 584.963 369.651 580.975 371.303C576.986 372.955 573.362 375.377 570.31 378.43L465.69 483.05L342 615.06Z" fill="#2BA4C9"/>
<path d="M482.327 595.521L603.653 716.847C601.423 719.076 598.399 720.329 595.245 720.329C592.092 720.329 589.068 719.076 586.838 716.847L482.306 612.315C480.086 610.083 478.841 607.062 478.845 603.914C478.849 600.766 480.101 597.747 482.327 595.521V595.521Z" fill="#1D252E"/>
<path d="M801.3 591.56L696.86 669.15L616 729.21L471.11 584.31L512.6 528.47L531.17 503.47L608.77 399C618.47 385.93 632.49 370.77 649.91 355.45C650.28 355.11 650.68 354.77 651.06 354.45C691.94 318.78 751.06 282.45 817.06 269.5C823.66 268.21 830.35 267.01 837.06 265.91C888.13 257.53 938.56 254.91 942.06 258.36C945.56 261.81 941.62 307.18 932.06 360.8C930.99 366.8 929.83 372.98 928.62 379.18C915.34 446.11 879 508.12 843.71 550.1C828.76 567.91 814 582.12 801.3 591.56Z" fill="#2BA4C9"/>
<path d="M931.94 360.81C907.393 322.817 875.026 290.495 837 266V266C888.07 257.62 938.5 255 942 258.45C945.5 261.9 941.53 307.19 931.94 360.81Z" fill="#1D252E"/>
<path d="M539.59 648.2L460 733.11L466.87 739.98L552.53 659.7C547.959 656.166 543.636 652.324 539.59 648.2V648.2Z" fill="#2BA4C9"/>
<path d="M669.1 689.18L510.49 530.58L469.75 585.67L614.66 730.58L669.1 689.18Z" fill="#1D252E"/>
<path d="M797.61 591.78C759.41 622.38 667.61 687.78 667.61 687.78" stroke="#1D252E" stroke-width="4" stroke-linecap="round" stroke-linejoin="round"/>
<path d="M607.75 401.93C577.15 440.13 511.8 531.93 511.8 531.93" stroke="#1D252E" stroke-width="4" stroke-linecap="round" stroke-linejoin="round"/>
</svg>
