<?xml version="1.0" encoding="UTF-8" standalone="no"?>
<!-- Created with Inkscape (http://www.inkscape.org/) -->

<svg
   width="134.72049mm"
   height="24.638687mm"
   viewBox="0 0 134.72049 24.638687"
   version="1.1"
   id="svg889"
   inkscape:version="1.1 (1:1.1+202105261517+ce6663b3b7)"
   sodipodi:docname="logo.svg"
   xmlns:inkscape="http://www.inkscape.org/namespaces/inkscape"
   xmlns:sodipodi="http://sodipodi.sourceforge.net/DTD/sodipodi-0.dtd"
   xmlns="http://www.w3.org/2000/svg"
   xmlns:svg="http://www.w3.org/2000/svg">
  <sodipodi:namedview
     id="namedview891"
     pagecolor="#ffffff"
     bordercolor="#666666"
     borderopacity="1.0"
     inkscape:pageshadow="2"
     inkscape:pageopacity="0.0"
     inkscape:pagecheckerboard="0"
     inkscape:document-units="mm"
     showgrid="false"
     fit-margin-top="0"
     fit-margin-left="0"
     fit-margin-right="0"
     fit-margin-bottom="0"
     inkscape:zoom="0.75187991"
     inkscape:cx="356.4399"
     inkscape:cy="516.03986"
     inkscape:window-width="3840"
     inkscape:window-height="1163"
     inkscape:window-x="1920"
     inkscape:window-y="0"
     inkscape:window-maximized="1"
     inkscape:current-layer="layer1" />
  <defs
     id="defs886">
    <inkscape:path-effect
       effect="bspline"
       id="path-effect19978"
       is_visible="true"
       lpeversion="1"
       weight="33.333333"
       steps="2"
       helper_size="0"
       apply_no_weight="true"
       apply_with_weight="true"
       only_selected="false" />
  </defs>
  <g
     inkscape:label="Layer 1"
     inkscape:groupmode="layer"
     id="layer1"
     transform="translate(-10.408717,-11.96146)">
    <text
       xml:space="preserve"
       style="font-style:normal;font-variant:normal;font-weight:normal;font-stretch:normal;font-size:25.4px;line-height:1.25;font-family:K2D;-inkscape-font-specification:K2D;fill:#000000;fill-opacity:1;stroke:none;stroke-width:0.264583"
       x="9.5197172"
       y="31.291546"
       id="text845"
       inkscape:label="fp text"><tspan
         sodipodi:role="line"
         id="tspan843"
         style="font-style:normal;font-variant:normal;font-weight:normal;font-stretch:normal;font-size:25.4px;font-family:K2D;-inkscape-font-specification:K2D;fill:#4a5568;fill-opacity:1;stroke-width:0.264583"
         x="9.5197172"
         y="31.291546">founderpad</tspan></text>
    <path
       style="fill:none;stroke:#ffffff;stroke-width:1;stroke-linecap:butt;stroke-linejoin:miter;stroke-miterlimit:4;stroke-dasharray:none;stroke-opacity:1"
       d="m 136.20327,20.22568 c -2.89631,2.632068 -5.79262,5.264143 -7.50449,6.899402 -1.71187,1.63526 -2.23923,2.273632 -2.76657,2.911988"
       id="path19976"
       inkscape:path-effect="#path-effect19978"
       inkscape:original-d="m 136.20327,20.22568 c -2.89605,2.63235 -5.79237,5.26442 -8.68896,7.89624 -0.52711,0.63866 -1.05447,1.27703 -1.5821,1.91515"
       sodipodi:nodetypes="ccc" />
    <path
       style="color:#000000;fill:#2ba4c9;fill-opacity:1;-inkscape-stroke:none"
       d="m 139.72217,16.41862 c -5.86785,5.13215 -11.7261,10.24757 -13.90235,12.86133 -0.54405,0.65343 -0.85888,1.14857 -1.01367,1.55078 -0.15478,0.40221 -0.14398,0.74496 0.0293,0.98242 0.17328,0.23747 0.44775,0.32632 0.70898,0.36719 0.26123,0.0409 0.52974,0.0338 0.74024,0.0254 0.42101,-0.0167 1.4704,-0.25388 1.4704,-0.25388 0,0 -2.21064,0.22848 -2.5641,-0.29602 -0.0565,-0.0839 -0.0748,-0.33588 0.0488,-0.65699 0.12357,-0.32111 0.4116,-0.79026 0.9375,-1.42188 2.10355,-2.52645 7.98176,-7.67644 13.84961,-12.80859 z"
       id="path14641"
       sodipodi:nodetypes="cssscccscscc" />
    <path
       style="color:#000000;fill:#2ba4c9;fill-opacity:1;-inkscape-stroke:none"
       d="m 139.72217,16.41862 c -0.82002,0.71721 -1.63986,1.43409 -2.44948,2.14387 -4.98382,4.36917 -9.58075,8.46897 -11.45287,10.71746 -0.54405,0.65343 -0.85888,1.14857 -1.01367,1.55078 -0.15478,0.40221 -0.14398,0.74496 0.0293,0.98242 0.17328,0.23747 0.44775,0.32632 0.70898,0.36719 0.26123,0.0409 0.52974,0.0338 0.74024,0.0254 0.42101,-0.0167 1.4704,-0.25388 1.4704,-0.25388 0,0 -2.21064,0.22848 -2.5641,-0.29602 -0.0565,-0.0839 -0.0748,-0.33588 0.0488,-0.65699 0.12357,-0.32111 0.4116,-0.79026 0.9375,-1.42188 2.10355,-2.52645 7.98176,-7.67644 13.84961,-12.80859 z"
       id="path19842"
       sodipodi:nodetypes="csssscccscscc" />
    <path
       id="path3208"
       style="fill:#2ba4c9;stroke:#ffffff;stroke-width:0;stroke-linecap:round;stroke-linejoin:round;stroke-miterlimit:4;stroke-dasharray:none;stroke-dashoffset:0.0377953;paint-order:stroke fill markers"
       inkscape:transform-center-y="0.2616281"
       d="m 145.12874,11.96146 c -0.3129,0.0859 -1.6537,0.62569 -2.8596,1.37223 -0.80859,0.50056 -1.57624,1.07086 -2.09569,1.47606 -0.64995,-0.56846 -2.80831,0.0124 -2.80831,0.0124 0,0 1.45278,0.656 2.44881,1.78178 0.99604,1.12577 1.34115,2.50185 1.34115,2.50185 0,0 0.87573,-1.80102 0.50226,-2.55456 0.47483,-0.45429 1.15992,-1.14428 1.77433,-1.8962 0.86874,-1.0631 1.5395,-2.30944 1.69751,-2.6935 z"
       sodipodi:nodetypes="csccsccsc"
       inkscape:transform-center-x="-0.074655" />
  </g>
</svg>
