<svg width="534" height="352" viewBox="0 0 534 352" fill="none" xmlns="http://www.w3.org/2000/svg">
<g clip-path="url(#clip0_1:105)">
<path d="M208.82 71C211.775 71.1026 214.695 70.3378 217.22 68.8C221.22 66.3 223.52 61.7 223.92 55.1C223.933 54.9687 223.92 54.836 223.882 54.7097C223.844 54.5833 223.781 54.4657 223.698 54.3636C223.614 54.2615 223.511 54.1768 223.395 54.1144C223.279 54.052 223.151 54.0131 223.02 54C222.889 53.9869 222.756 53.9997 222.63 54.0379C222.503 54.076 222.386 54.1386 222.284 54.2222C222.181 54.3058 222.097 54.4086 222.034 54.5249C221.972 54.6412 221.933 54.7687 221.92 54.9C221.52 60.8 219.62 64.9 216.12 67.1C209.72 71.1 200.22 67.4 200.12 67.3C199.868 67.2072 199.59 67.2182 199.346 67.3308C199.102 67.4433 198.913 67.648 198.82 67.9C198.727 68.1519 198.738 68.4305 198.851 68.6743C198.963 68.918 199.168 69.1072 199.42 69.2C202.407 70.4024 205.6 71.0137 208.82 71V71Z" fill="black"/>
<path d="M212.22 24.8C212.22 17.5 217.32 11.6 223.62 11.6C229.92 11.6 235.02 17.5 235.02 24.8C235.02 30.1 232.32 34.7 228.42 36.8H218.82C216.759 35.56 215.063 33.7967 213.903 31.6891C212.744 29.5815 212.163 27.2047 212.22 24.8Z" fill="#D7D7D7"/>
<path d="M228.42 36.7V49.4H218.72V36.7H218.82H228.42Z" fill="white"/>
<path d="M217.72 49.4V36.8C217.711 36.6664 217.731 36.5325 217.778 36.4071C217.825 36.2818 217.899 36.168 217.993 36.0733C218.088 35.9786 218.202 35.9052 218.327 35.8581C218.452 35.811 218.586 35.7912 218.72 35.8H228.42C228.554 35.7912 228.688 35.811 228.813 35.8581C228.938 35.9052 229.052 35.9786 229.147 36.0733C229.241 36.168 229.315 36.2818 229.362 36.4071C229.409 36.5325 229.429 36.6664 229.42 36.8V49.4C229.429 49.5336 229.409 49.6676 229.362 49.7929C229.315 49.9182 229.241 50.0321 229.147 50.1267C229.052 50.2214 228.938 50.2948 228.813 50.3419C228.688 50.3891 228.554 50.4089 228.42 50.4H218.72C218.461 50.3814 218.217 50.2701 218.034 50.0865C217.85 49.9028 217.739 49.6591 217.72 49.4V49.4ZM227.42 37.8H219.72V48.4H227.42V37.8Z" fill="black"/>
<path d="M225.12 37.7C225.334 37.6834 225.54 37.6098 225.716 37.4866C225.892 37.3635 226.031 37.1955 226.12 37L229.42 25.9C229.461 25.7449 229.465 25.5822 229.43 25.4256C229.395 25.2689 229.323 25.123 229.22 25C229.132 24.8701 229.013 24.765 228.873 24.6949C228.732 24.6249 228.576 24.5921 228.42 24.6H223.51C223.245 24.6 222.99 24.7054 222.803 24.8929C222.615 25.0804 222.51 25.3348 222.51 25.6C222.51 25.8652 222.615 26.1196 222.803 26.3071C222.99 26.4946 223.245 26.6 223.51 26.6H227.01L224.01 36.5C223.962 36.6245 223.943 36.7581 223.953 36.8911C223.964 37.024 224.005 37.1529 224.072 37.2681C224.139 37.3833 224.231 37.4819 224.342 37.5567C224.452 37.6314 224.578 37.6804 224.71 37.7H225.12Z" fill="black"/>
<path d="M222.12 37.7H222.42C222.658 37.6126 222.858 37.445 222.986 37.226C223.114 37.0069 223.161 36.7502 223.12 36.5L220.12 26.6H223.62C223.885 26.6 224.14 26.4946 224.327 26.3071C224.515 26.1196 224.62 25.8652 224.62 25.6C224.62 25.3348 224.515 25.0804 224.327 24.8929C224.14 24.7054 223.885 24.6 223.62 24.6H218.72C218.563 24.5921 218.408 24.6249 218.267 24.6949C218.127 24.765 218.008 24.8701 217.92 25C217.76 25.2713 217.69 25.5864 217.72 25.9L221.12 37.1C221.214 37.2837 221.357 37.4373 221.534 37.5434C221.711 37.6495 221.914 37.7038 222.12 37.7V37.7Z" fill="black"/>
<path d="M223.62 7.5C223.754 7.50884 223.888 7.48902 224.013 7.44189C224.138 7.39477 224.252 7.32141 224.347 7.22673C224.441 7.13205 224.515 7.01823 224.562 6.8929C224.609 6.76757 224.629 6.63361 224.62 6.5V1C224.62 0.734784 224.515 0.480429 224.327 0.292892C224.14 0.105356 223.885 0 223.62 0C223.355 0 223.1 0.105356 222.913 0.292892C222.725 0.480429 222.62 0.734784 222.62 1V6.5C222.611 6.63361 222.631 6.76757 222.678 6.8929C222.725 7.01823 222.799 7.13205 222.893 7.22673C222.988 7.32141 223.102 7.39477 223.227 7.44189C223.352 7.48902 223.486 7.50884 223.62 7.5V7.5Z" fill="black"/>
<path d="M212.02 12.3C212.151 12.3035 212.282 12.2785 212.403 12.2267C212.524 12.175 212.632 12.0976 212.72 12C212.903 11.8131 213.006 11.5618 213.006 11.3C213.006 11.0382 212.903 10.7869 212.72 10.6L208.82 6.7C208.627 6.55557 208.389 6.48545 208.149 6.50252C207.909 6.51958 207.683 6.62268 207.513 6.79289C207.343 6.9631 207.24 7.189 207.223 7.42911C207.205 7.66922 207.276 7.90742 207.42 8.09999L211.32 12C211.509 12.1817 211.758 12.2883 212.02 12.3V12.3Z" fill="black"/>
<path d="M201.72 23.9H207.22C207.485 23.9 207.74 23.7946 207.927 23.6071C208.115 23.4196 208.22 23.1652 208.22 22.9C208.22 22.6348 208.115 22.3804 207.927 22.1929C207.74 22.0053 207.485 21.9 207.22 21.9H201.72C201.455 21.9 201.2 22.0053 201.013 22.1929C200.825 22.3804 200.72 22.6348 200.72 22.9C200.72 23.1652 200.825 23.4196 201.013 23.6071C201.2 23.7946 201.455 23.9 201.72 23.9Z" fill="black"/>
<path d="M239.92 23.9H245.42C245.685 23.9 245.94 23.7946 246.127 23.6071C246.315 23.4196 246.42 23.1652 246.42 22.9C246.42 22.6348 246.315 22.3804 246.127 22.1929C245.94 22.0054 245.685 21.9 245.42 21.9H239.92C239.786 21.8912 239.652 21.911 239.527 21.9581C239.402 22.0052 239.288 22.0786 239.193 22.1733C239.099 22.268 239.025 22.3818 238.978 22.5071C238.931 22.6324 238.911 22.7664 238.92 22.9C238.92 23.1652 239.025 23.4196 239.213 23.6071C239.4 23.7946 239.655 23.9 239.92 23.9Z" fill="black"/>
<path d="M235.12 12.3C235.251 12.3035 235.382 12.2785 235.503 12.2267C235.624 12.175 235.732 12.0976 235.82 12L239.72 8.09999C239.864 7.90742 239.935 7.66922 239.917 7.42911C239.9 7.189 239.797 6.9631 239.627 6.79289C239.457 6.62268 239.231 6.51958 238.991 6.50252C238.751 6.48545 238.513 6.55557 238.32 6.7L234.42 10.6C234.237 10.7869 234.134 11.0382 234.134 11.3C234.134 11.5618 234.237 11.8131 234.42 12C234.609 12.1817 234.858 12.2883 235.12 12.3V12.3Z" fill="black"/>
<path d="M532.72 351.88H154.42C154.155 351.88 153.9 351.775 153.713 351.587C153.525 351.4 153.42 351.145 153.42 350.88C153.42 350.615 153.525 350.36 153.713 350.173C153.9 349.985 154.155 349.88 154.42 349.88H532.82C532.954 349.871 533.088 349.891 533.213 349.938C533.338 349.985 533.452 350.059 533.547 350.153C533.641 350.248 533.715 350.362 533.762 350.487C533.809 350.612 533.829 350.746 533.82 350.88C533.821 351.02 533.792 351.159 533.736 351.287C533.679 351.416 533.596 351.531 533.493 351.625C533.389 351.719 533.267 351.791 533.133 351.835C533 351.879 532.859 351.894 532.72 351.88V351.88Z" fill="black"/>
<path d="M103.28 219.05C103.28 219.05 113.01 153.79 118.28 142.44C123.55 131.09 124.51 121.09 140.51 119.09C156.51 117.09 177 124 177 124C177 124 186.13 127.73 188.82 132.91C191.51 138.09 195.89 147.57 195.7 152.33C195.51 157.09 193.02 178.74 186.76 178.41C180.5 178.08 179.57 177 179.57 177L187.41 207.32C187.41 207.32 128.07 229.02 103.28 219.05Z" fill="white"/>
<path d="M106.19 263.6C106.211 265.843 107.111 267.987 108.697 269.573C110.283 271.159 112.427 272.059 114.67 272.08H164.4C166.654 272.08 168.816 271.184 170.41 269.59C172.004 267.996 172.9 265.834 172.9 263.58C172.9 261.326 172.004 259.164 170.41 257.57C168.816 255.976 166.654 255.08 164.4 255.08H114.67C113.553 255.079 112.446 255.298 111.414 255.727C110.382 256.155 109.445 256.783 108.657 257.575C107.868 258.367 107.245 259.307 106.821 260.341C106.398 261.375 106.183 262.483 106.19 263.6V263.6Z" fill="white"/>
<path d="M106.19 263.6C106.211 265.843 107.111 267.987 108.697 269.573C110.283 271.159 112.427 272.059 114.67 272.08H164.4C166.654 272.08 168.816 271.184 170.41 269.59C172.004 267.996 172.9 265.834 172.9 263.58C172.9 261.326 172.004 259.164 170.41 257.57C168.816 255.976 166.654 255.08 164.4 255.08H114.67C113.553 255.079 112.446 255.298 111.414 255.727C110.382 256.155 109.445 256.783 108.657 257.575C107.868 258.367 107.245 259.307 106.821 260.341C106.398 261.375 106.183 262.483 106.19 263.6V263.6ZM108.76 263.73C108.783 262.17 109.413 260.68 110.517 259.577C111.62 258.473 113.11 257.843 114.67 257.82H164.4C165.967 257.82 167.471 258.443 168.579 259.551C169.687 260.659 170.31 262.163 170.31 263.73C170.31 265.297 169.687 266.801 168.579 267.909C167.471 269.017 165.967 269.64 164.4 269.64H114.67C113.11 269.617 111.62 268.987 110.517 267.883C109.413 266.78 108.783 265.29 108.76 263.73Z" fill="black"/>
<path d="M179.17 351.86H179.43C179.594 351.824 179.749 351.755 179.884 351.657C180.02 351.558 180.134 351.433 180.219 351.288C180.303 351.143 180.357 350.982 180.376 350.816C180.395 350.649 180.38 350.48 180.33 350.32L160.16 270.54C160.075 270.216 159.865 269.94 159.576 269.771C159.288 269.602 158.944 269.555 158.62 269.64C158.296 269.725 158.02 269.935 157.851 270.224C157.682 270.512 157.635 270.856 157.72 271.18L177.89 350.97C178.006 351.218 178.185 351.431 178.41 351.588C178.635 351.744 178.897 351.838 179.17 351.86V351.86Z" fill="black"/>
<path d="M99.9 351.86C100.194 351.855 100.479 351.755 100.712 351.575C100.944 351.395 101.112 351.144 101.19 350.86L121.36 271.17C121.402 271.01 121.412 270.843 121.39 270.679C121.367 270.515 121.313 270.357 121.229 270.214C121.145 270.071 121.034 269.945 120.903 269.845C120.771 269.745 120.62 269.672 120.46 269.63C120.3 269.588 120.133 269.578 119.969 269.6C119.805 269.623 119.647 269.677 119.504 269.761C119.361 269.845 119.235 269.956 119.135 270.087C119.035 270.219 118.962 270.37 118.92 270.53L98.74 350.31C98.6702 350.633 98.7239 350.97 98.8905 351.255C99.0571 351.54 99.3246 351.752 99.64 351.85L99.9 351.86Z" fill="black"/>
<path d="M139.6 351.86C139.771 351.87 139.943 351.844 140.103 351.783C140.263 351.723 140.409 351.629 140.531 351.508C140.653 351.387 140.747 351.242 140.809 351.082C140.871 350.922 140.899 350.751 140.89 350.58V270.79C140.862 270.469 140.714 270.17 140.476 269.952C140.238 269.734 139.927 269.613 139.605 269.613C139.282 269.613 138.972 269.734 138.734 269.952C138.496 270.17 138.348 270.469 138.32 270.79V350.58C138.31 350.751 138.336 350.922 138.397 351.082C138.457 351.242 138.551 351.387 138.672 351.508C138.793 351.629 138.938 351.723 139.098 351.783C139.258 351.844 139.429 351.87 139.6 351.86Z" fill="black"/>
<path d="M58.79 188.82H338.11C338.431 188.792 338.73 188.644 338.948 188.406C339.166 188.168 339.286 187.857 339.286 187.535C339.286 187.212 339.166 186.902 338.948 186.664C338.73 186.426 338.431 186.278 338.11 186.25H58.79C58.6179 186.24 58.4457 186.266 58.2845 186.327C58.1234 186.389 57.9771 186.483 57.8552 186.605C57.7333 186.727 57.6386 186.873 57.5774 187.035C57.5162 187.196 57.4898 187.368 57.5 187.54C57.5 187.709 57.5334 187.876 57.5984 188.032C57.6633 188.188 57.7585 188.33 57.8784 188.449C57.9984 188.568 58.1406 188.662 58.2971 188.725C58.4535 188.789 58.6211 188.821 58.79 188.82Z" fill="black"/>
<path d="M334.12 351.86H334.25C334.572 351.785 334.86 351.607 335.069 351.352C335.279 351.097 335.399 350.78 335.41 350.45L312.79 187.28C312.785 187.103 312.743 186.928 312.668 186.768C312.593 186.608 312.485 186.464 312.352 186.347C312.218 186.23 312.063 186.142 311.894 186.088C311.725 186.034 311.547 186.015 311.37 186.033C311.194 186.051 311.023 186.105 310.868 186.192C310.714 186.279 310.579 186.397 310.472 186.538C310.365 186.68 310.288 186.842 310.247 187.014C310.205 187.186 310.199 187.365 310.23 187.54L332.84 350.84C332.893 351.136 333.052 351.403 333.288 351.591C333.523 351.779 333.819 351.874 334.12 351.86V351.86Z" fill="black"/>
<path d="M62.77 351.86C63.0838 351.847 63.3833 351.725 63.617 351.515C63.8506 351.305 64.0037 351.021 64.05 350.71L86.67 187.54C86.6871 187.371 86.6707 187.201 86.6219 187.038C86.5731 186.876 86.4928 186.725 86.3855 186.593C86.2783 186.462 86.1462 186.353 85.9968 186.273C85.8475 186.192 85.6838 186.142 85.515 186.125C85.3463 186.108 85.1758 186.124 85.0134 186.173C84.8509 186.222 84.6997 186.302 84.5683 186.409C84.4369 186.517 84.3279 186.649 84.2476 186.798C84.1672 186.947 84.1171 187.111 84.1 187.28L61.51 350.45C61.483 350.62 61.4925 350.795 61.5378 350.961C61.5831 351.128 61.6632 351.283 61.7728 351.416C61.8825 351.549 62.0191 351.658 62.1738 351.734C62.3284 351.811 62.4976 351.854 62.67 351.86H62.77Z" fill="black"/>
<path d="M161.19 126.38C161.19 126.38 166.71 121.38 168.12 119.31C169.53 117.24 171.85 116.23 173.26 118.41C173.641 119.295 173.805 120.259 173.739 121.221C173.673 122.183 173.379 123.115 172.88 123.94C171.72 125.22 164.27 127.92 161.19 126.38Z" fill="white"/>
<path d="M160.8 127.66C160.442 127.418 160.172 127.068 160.03 126.66C159.994 126.449 160.011 126.233 160.079 126.031C160.147 125.828 160.264 125.646 160.42 125.5C161.83 124.09 165.94 120.23 167.1 118.56C167.501 117.799 168.089 117.153 168.807 116.681C169.526 116.209 170.353 115.926 171.21 115.86V115.86C171.835 115.869 172.447 116.04 172.986 116.356C173.526 116.671 173.975 117.12 174.29 117.66C175.45 119.33 175.19 122.93 173.91 124.73C172.75 126.14 167.61 128.2 163.63 128.2C162.661 128.196 161.702 128.013 160.8 127.66ZM171.21 118.41C170.57 118.41 169.79 119.06 169.15 120.08C167.536 122.054 165.774 123.903 163.88 125.61C166.97 125.48 171.08 123.94 171.72 123.17C172.057 122.546 172.265 121.86 172.332 121.155C172.399 120.449 172.323 119.736 172.11 119.06C171.72 118.41 171.34 118.41 171.21 118.41Z" fill="black"/>
<path d="M176.73 139.87C174.944 139.945 173.17 139.545 171.59 138.71C171.048 141.315 170.363 143.889 169.54 146.42L154.89 135.63C154.89 135.63 157.59 127.63 162.34 125.87C167.09 124.11 175.96 122.78 182.51 125.87C184.7 127.15 185.51 129.98 182.51 130.87C184.31 132.15 186.37 135.49 182.13 136.87C183.93 138.29 183.8 139.96 182.64 141.24C179.56 144.71 173.01 142.91 170.69 142.91" fill="white"/>
<path d="M168.77 147.17L154.12 136.38C153.89 136.235 153.715 136.018 153.623 135.763C153.53 135.507 153.526 135.228 153.61 134.97C153.73 134.71 156.56 126.49 161.83 124.43C167.48 122.25 176.48 121.35 183.16 124.56C183.964 124.964 184.634 125.591 185.09 126.366C185.546 127.141 185.768 128.031 185.73 128.93C185.724 129.324 185.632 129.712 185.459 130.067C185.286 130.421 185.037 130.733 184.73 130.98C185.585 132.026 186.001 133.363 185.89 134.71C185.803 135.214 185.608 135.693 185.318 136.114C185.027 136.535 184.65 136.889 184.21 137.15C184.651 137.922 184.827 138.817 184.711 139.698C184.596 140.579 184.195 141.398 183.57 142.03C180.75 145.37 175.48 144.73 172.39 144.35C172.01 144.35 171.75 144.22 171.5 144.22C171.11 145.63 170.72 146.66 170.72 146.79C170.69 146.997 170.601 147.192 170.465 147.351C170.329 147.511 170.15 147.628 169.95 147.69H169.51C169.352 147.674 169.201 147.618 169.072 147.527C168.942 147.436 168.838 147.313 168.77 147.17V147.17ZM169.41 142.55C169.814 141.249 170.073 139.908 170.18 138.55C170.232 138.351 170.328 138.167 170.461 138.011C170.594 137.855 170.762 137.732 170.95 137.65C171.139 137.576 171.343 137.548 171.545 137.569C171.746 137.59 171.94 137.659 172.11 137.77C173.449 138.486 174.967 138.799 176.48 138.67C176.801 138.698 177.1 138.846 177.318 139.084C177.536 139.322 177.657 139.633 177.657 139.955C177.657 140.277 177.536 140.588 177.318 140.826C177.1 141.064 176.801 141.212 176.48 141.24C175.089 141.283 173.699 141.111 172.36 140.73C172.34 141.167 172.255 141.598 172.11 142.01H172.62C175.32 142.4 179.56 142.91 181.49 140.6C181.806 140.247 181.987 139.794 182 139.32C181.954 139.052 181.849 138.798 181.694 138.575C181.538 138.352 181.336 138.166 181.1 138.03C180.904 137.885 180.753 137.689 180.663 137.462C180.573 137.236 180.548 136.99 180.59 136.75C180.649 136.523 180.761 136.314 180.918 136.14C181.075 135.966 181.271 135.832 181.49 135.75C182.26 135.49 183.03 135.11 183.16 134.46C183.121 133.941 182.962 133.439 182.694 132.993C182.427 132.546 182.059 132.169 181.62 131.89C181.413 131.755 181.252 131.56 181.159 131.331C181.066 131.103 181.046 130.851 181.1 130.61C181.14 130.375 181.246 130.157 181.405 129.98C181.565 129.803 181.771 129.675 182 129.61C182.39 129.48 183 129.35 183 128.84C183 128.33 182.61 127.56 181.84 127.04C175.55 123.96 166.94 125.37 162.7 127.04C159.7 128.2 157.43 132.69 156.4 135.14L168.87 144.26C168.99 143.74 169.25 143.26 169.38 142.59L169.41 142.55Z" fill="black"/>
<path d="M182.51 132.17C182.742 132.171 182.97 132.113 183.173 132.001C183.376 131.889 183.547 131.727 183.67 131.53C183.758 131.379 183.814 131.212 183.836 131.039C183.858 130.866 183.845 130.69 183.797 130.522C183.75 130.354 183.669 130.197 183.559 130.061C183.45 129.925 183.314 129.812 183.16 129.73C181.239 128.624 179.076 128.006 176.86 127.93C176.539 127.958 176.24 128.106 176.022 128.344C175.804 128.582 175.683 128.893 175.683 129.215C175.683 129.537 175.804 129.848 176.022 130.086C176.24 130.324 176.539 130.472 176.86 130.5C178.593 130.581 180.274 131.112 181.74 132.04C181.987 132.127 182.248 132.171 182.51 132.17V132.17Z" fill="black"/>
<path d="M182.13 138.17C182.362 138.17 182.59 138.111 182.792 138C182.995 137.888 183.167 137.726 183.29 137.53C183.376 137.378 183.431 137.211 183.451 137.037C183.472 136.864 183.457 136.688 183.409 136.521C183.36 136.353 183.279 136.197 183.169 136.061C183.059 135.925 182.924 135.813 182.77 135.73C180.82 134.681 178.683 134.025 176.48 133.8C176.138 133.8 175.81 133.936 175.568 134.178C175.326 134.42 175.19 134.748 175.19 135.09C175.181 135.261 175.209 135.432 175.271 135.592C175.332 135.752 175.427 135.897 175.549 136.018C175.671 136.139 175.817 136.233 175.977 136.293C176.137 136.354 176.309 136.38 176.48 136.37C178.276 136.551 180.02 137.074 181.62 137.91C181.679 137.99 181.756 138.055 181.844 138.1C181.933 138.145 182.031 138.169 182.13 138.17Z" fill="black"/>
<path d="M128.94 160.17L148.34 131L173.01 148.86L134.51 184.07C132.036 186.29 128.834 187.525 125.51 187.54C123.549 187.54 121.612 187.108 119.837 186.274C118.062 185.44 116.492 184.225 115.241 182.715C113.989 181.205 113.085 179.438 112.594 177.54C112.103 175.641 112.037 173.657 112.4 171.73C115.74 153.87 119.21 130.88 125.89 126.12" fill="white"/>
<path d="M125.34 188.82C128.997 188.793 132.517 187.423 135.23 184.97L173.78 149.76C174.029 149.487 174.164 149.129 174.16 148.76C174.121 148.375 173.939 148.018 173.65 147.76L148.98 129.9C148.693 129.687 148.334 129.594 147.98 129.64C147.803 129.661 147.631 129.718 147.477 129.808C147.322 129.897 147.187 130.017 147.08 130.16L127.68 159.32C127.587 159.464 127.524 159.624 127.494 159.793C127.463 159.961 127.466 160.134 127.502 160.301C127.538 160.468 127.607 160.626 127.705 160.767C127.802 160.907 127.926 161.027 128.07 161.12C128.214 161.213 128.374 161.276 128.543 161.306C128.711 161.337 128.884 161.334 129.051 161.298C129.218 161.262 129.376 161.193 129.517 161.095C129.657 160.998 129.777 160.874 129.87 160.73L148.5 132.73L170.72 148.92L133.31 182.91C132.1 183.993 130.684 184.822 129.147 185.345C127.61 185.869 125.983 186.077 124.363 185.958C122.743 185.838 121.164 185.393 119.721 184.65C118.277 183.906 116.998 182.879 115.96 181.63C114.837 180.267 114.024 178.674 113.581 176.964C113.137 175.254 113.072 173.468 113.39 171.73C113.78 169.68 114.16 167.49 114.55 165.31C117.37 150.02 120.84 130.88 126.24 126.89C126.512 126.686 126.691 126.382 126.739 126.045C126.787 125.709 126.699 125.367 126.495 125.095C126.291 124.823 125.987 124.644 125.65 124.596C125.314 124.548 124.972 124.636 124.7 124.84C118.53 129.33 115.19 147.45 111.98 164.84C111.59 167.02 111.21 169.2 110.82 171.26C110.43 173.398 110.511 175.595 111.058 177.698C111.605 179.801 112.605 181.759 113.988 183.436C115.371 185.112 117.104 186.466 119.064 187.403C121.025 188.34 123.167 188.837 125.34 188.86V188.82Z" fill="black"/>
<path d="M185.86 173.53L172.86 148.99L199.2 140.51L207.83 172.17C208.326 173.989 208.397 175.898 208.036 177.748C207.675 179.599 206.893 181.341 205.75 182.84C204.606 184.34 203.133 185.555 201.444 186.393C199.755 187.23 197.895 187.667 196.01 187.67C192.992 187.622 190.084 186.53 187.78 184.58L180.51 178.03" fill="white"/>
<path d="M196.01 188.82C198.101 188.809 200.161 188.317 202.031 187.383C203.902 186.45 205.533 185.099 206.799 183.435C208.065 181.771 208.931 179.838 209.332 177.786C209.733 175.734 209.657 173.618 209.11 171.6L200.51 140.17C200.38 139.78 200.26 139.52 199.87 139.4C199.566 139.23 199.208 139.184 198.87 139.27L172.51 147.71C172.328 147.766 172.163 147.865 172.029 147.999C171.895 148.133 171.796 148.298 171.74 148.48C171.617 148.802 171.617 149.158 171.74 149.48L184.74 174.02C184.825 174.172 184.938 174.305 185.075 174.413C185.211 174.521 185.367 174.6 185.534 174.648C185.702 174.695 185.876 174.709 186.049 174.689C186.221 174.669 186.388 174.615 186.54 174.53C186.692 174.445 186.825 174.332 186.933 174.195C187.041 174.059 187.12 173.903 187.168 173.736C187.215 173.568 187.229 173.394 187.209 173.221C187.189 173.049 187.135 172.882 187.05 172.73L174.85 149.48L198.49 141.9L206.71 172.22C207.168 173.864 207.232 175.593 206.897 177.266C206.562 178.939 205.836 180.51 204.78 181.85C203.759 183.201 202.441 184.299 200.926 185.057C199.412 185.815 197.743 186.213 196.05 186.22C193.346 186.198 190.741 185.196 188.72 183.4L181.4 176.84C181.141 176.649 180.819 176.562 180.499 176.598C180.178 176.634 179.883 176.789 179.672 177.033C179.462 177.276 179.35 177.591 179.361 177.913C179.372 178.235 179.504 178.541 179.73 178.77L187.05 185.32C189.507 187.545 192.695 188.79 196.01 188.82V188.82Z" fill="black"/>
<path d="M187.14 206.04C187.14 206.04 178.79 172.63 177.5 166.04Z" fill="white"/>
<path d="M187.14 207.32H187.4C187.562 207.282 187.715 207.211 187.85 207.112C187.984 207.013 188.096 206.887 188.181 206.743C188.265 206.599 188.319 206.439 188.339 206.274C188.36 206.108 188.346 205.94 188.3 205.78C188.17 205.4 179.95 172.38 178.66 165.78C178.591 165.439 178.39 165.14 178.1 164.948C177.81 164.755 177.456 164.686 177.115 164.755C176.774 164.824 176.475 165.025 176.283 165.315C176.09 165.605 176.021 165.959 176.09 166.3C177.38 172.98 185.34 204.97 185.73 206.38C185.849 206.656 186.046 206.891 186.296 207.058C186.546 207.225 186.839 207.316 187.14 207.32V207.32Z" fill="black"/>
<path d="M193.18 142.44C193.18 142.44 190.74 132.03 184.44 129.21Z" fill="white"/>
<path d="M193.05 143.72H193.31C193.473 143.683 193.627 143.613 193.762 143.514C193.897 143.416 194.01 143.29 194.095 143.146C194.179 143.001 194.233 142.841 194.253 142.675C194.272 142.509 194.258 142.34 194.21 142.18C194.08 141.8 191.51 131.13 184.83 128.18C184.527 128.066 184.192 128.072 183.894 128.199C183.595 128.325 183.357 128.561 183.229 128.858C183.1 129.155 183.091 129.491 183.203 129.794C183.315 130.098 183.539 130.347 183.83 130.49C189.35 132.93 191.83 142.7 191.83 142.82C191.938 143.063 192.107 143.274 192.321 143.432C192.535 143.59 192.786 143.689 193.05 143.72Z" fill="black"/>
<path d="M178.4 147.06C178.4 147.06 175.83 143.47 174.55 143.34Z" fill="white"/>
<path d="M178.4 148.35C178.673 148.325 178.937 148.236 179.17 148.09C179.323 148.003 179.454 147.883 179.553 147.738C179.652 147.593 179.716 147.428 179.741 147.254C179.767 147.08 179.752 146.903 179.698 146.736C179.644 146.569 179.552 146.416 179.43 146.29C178.43 144.75 176.35 142.18 174.68 142.05C174.509 142.023 174.334 142.033 174.167 142.078C174 142.123 173.845 142.203 173.711 142.312C173.577 142.422 173.467 142.558 173.39 142.713C173.312 142.868 173.268 143.037 173.26 143.21C173.242 143.379 173.258 143.55 173.307 143.713C173.356 143.875 173.436 144.027 173.544 144.158C173.652 144.289 173.785 144.398 173.936 144.477C174.086 144.556 174.251 144.605 174.42 144.62C175.572 145.541 176.583 146.626 177.42 147.84C177.528 148 177.674 148.13 177.845 148.219C178.016 148.308 178.207 148.353 178.4 148.35Z" fill="black"/>
<path d="M114.51 160.43C114.51 160.43 107.06 192.68 103.33 212.59Z" fill="white"/>
<path d="M103.79 213.96C104.092 213.967 104.387 213.864 104.62 213.671C104.854 213.479 105.01 213.208 105.06 212.91C108.48 193.07 115.31 160.97 115.44 160.58C115.502 160.238 115.426 159.885 115.228 159.599C115.03 159.313 114.727 159.117 114.385 159.055C114.043 158.993 113.69 159.069 113.404 159.267C113.118 159.464 112.922 159.768 112.86 160.11C112.74 160.49 105.86 192.72 102.48 212.56C102.438 212.892 102.515 213.229 102.698 213.509C102.882 213.789 103.159 213.995 103.48 214.09C103.519 214.047 103.567 214.013 103.621 213.991C103.674 213.968 103.732 213.958 103.79 213.96Z" fill="black"/>
<path d="M41.51 352.17H419.81C420.075 352.17 420.33 352.065 420.517 351.877C420.705 351.69 420.81 351.435 420.81 351.17C420.81 350.905 420.705 350.65 420.517 350.463C420.33 350.275 420.075 350.17 419.81 350.17H41.43C41.2964 350.161 41.1624 350.181 41.0371 350.228C40.9118 350.275 40.7979 350.349 40.7033 350.443C40.6086 350.538 40.5352 350.652 40.4881 350.777C40.441 350.902 40.4212 351.036 40.43 351.17C40.4296 351.308 40.4578 351.445 40.513 351.572C40.5682 351.699 40.6491 351.813 40.7506 351.907C40.8521 352.001 40.972 352.073 41.1027 352.118C41.2334 352.163 41.3721 352.181 41.51 352.17Z" fill="black"/>
<path d="M345.3 199.38H6.39999C5.55879 199.383 4.72537 199.219 3.94769 198.898C3.17002 198.577 2.46344 198.106 1.86862 197.511C1.2738 196.917 0.802477 196.21 0.481782 195.432C0.161087 194.655 -0.00264022 193.821 9.33913e-07 192.98V192.98C-0.00264022 192.139 0.161087 191.305 0.481782 190.528C0.802477 189.75 1.2738 189.043 1.86862 188.449C2.46344 187.854 3.17002 187.382 3.94769 187.062C4.72537 186.741 5.55879 186.577 6.39999 186.58H345.3C346.141 186.577 346.975 186.741 347.752 187.062C348.53 187.382 349.237 187.854 349.831 188.449C350.426 189.043 350.898 189.75 351.218 190.528C351.539 191.305 351.703 192.139 351.7 192.98V192.98C351.69 194.674 351.012 196.296 349.814 197.494C348.616 198.692 346.994 199.369 345.3 199.38V199.38Z" fill="white"/>
<path d="M345.3 200.38H6.39999C4.43739 200.38 2.55517 199.6 1.1674 198.213C-0.220365 196.825 -1 194.943 -1 192.98C-1 191.017 -0.220365 189.135 1.1674 187.747C2.55517 186.36 4.43739 185.58 6.39999 185.58H345.3C347.263 185.58 349.145 186.36 350.533 187.747C351.92 189.135 352.7 191.017 352.7 192.98C352.7 194.943 351.92 196.825 350.533 198.213C349.145 199.6 347.263 200.38 345.3 200.38ZM6.39999 187.68C4.96782 187.68 3.59432 188.249 2.58162 189.262C1.56892 190.274 1 191.648 1 193.08C1 194.512 1.56892 195.886 2.58162 196.898C3.59432 197.911 4.96782 198.48 6.39999 198.48H345.3C346.732 198.48 348.106 197.911 349.118 196.898C350.131 195.886 350.7 194.512 350.7 193.08C350.7 191.648 350.131 190.274 349.118 189.262C348.106 188.249 346.732 187.68 345.3 187.68H6.39999Z" fill="black"/>
<path d="M221.71 325.03L225.41 334.73C225.41 334.73 262.11 338.43 264.91 343.53C267.71 348.63 263.21 350.03 257.41 350.03H191.91L191.41 324.03L221.71 325.03Z" fill="white"/>
<path d="M191.01 350.17L190.51 324.17C190.522 323.908 190.628 323.659 190.81 323.47C190.898 323.372 191.006 323.295 191.127 323.243C191.248 323.191 191.379 323.166 191.51 323.17L221.81 324.17C222.006 324.154 222.201 324.204 222.365 324.313C222.528 324.422 222.65 324.583 222.71 324.77L226.21 333.87C233.61 334.67 263.11 337.97 265.81 343.17C266.91 345.17 267.01 346.87 266.21 348.27C265.11 350.17 262.21 351.07 257.41 351.07H191.91C191.41 351.03 190.91 350.63 191.01 350.17ZM192.41 325.07L192.91 349.07H257.41C262.61 349.07 264.11 347.97 264.51 347.27C264.91 346.57 264.71 345.47 264.01 344.07C262.21 340.67 239.31 337.17 225.31 335.77C225.13 335.769 224.955 335.71 224.811 335.602C224.667 335.494 224.561 335.343 224.51 335.17L221.01 326.07L192.41 325.07Z" fill="black"/>
<path d="M186.11 325.03L185.91 334.73C185.91 334.73 226.61 338.43 229.31 343.53C232.01 348.63 227.61 350.03 221.81 350.03H148.51L155.81 324.03L186.11 325.03Z" fill="white"/>
<path d="M147.71 350.63C147.607 350.507 147.535 350.361 147.5 350.204C147.465 350.048 147.469 349.885 147.51 349.73L154.81 323.73C154.876 323.519 155.01 323.336 155.191 323.21C155.372 323.083 155.589 323.02 155.81 323.03L186.11 324.03C186.375 324.03 186.63 324.135 186.817 324.323C187.005 324.51 187.11 324.765 187.11 325.03L186.91 333.83C195.51 334.63 227.51 338.03 230.21 343.13C231.31 345.13 231.41 346.83 230.61 348.23C229.51 350.13 226.61 351.03 221.81 351.03H148.51C148.353 351.038 148.198 351.005 148.057 350.935C147.917 350.865 147.798 350.76 147.71 350.63V350.63ZM156.61 325.03L149.81 349.03H221.81C227.01 349.03 228.51 347.93 228.91 347.23C229.31 346.53 229.11 345.43 228.41 344.03C226.71 340.83 202.51 337.23 185.81 335.73C185.562 335.705 185.333 335.589 185.167 335.404C185 335.219 184.909 334.979 184.91 334.73L185.11 326.03L156.61 325.03Z" fill="black"/>
<path d="M181.51 219.93L196.61 218.33C201.514 217.828 206.443 218.997 210.599 221.647C214.756 224.297 217.896 228.273 219.51 232.93L239.81 326.33L197.71 330.33L181.51 219.93Z" fill="#2BA4C9"/>
<path d="M103.71 213.23L174.71 210.23C179.719 210.027 184.62 211.73 188.424 214.996C192.228 218.261 194.653 222.848 195.21 227.83L197.81 330.33L141.81 328.73L156.31 252.43H121.81C118.97 252.429 116.158 251.865 113.537 250.772C110.916 249.678 108.538 248.077 106.539 246.059C104.54 244.042 102.961 241.649 101.892 239.018C100.822 236.387 100.285 233.57 100.31 230.73V222.03L103.71 213.23Z" fill="#2BA4C9"/>
<path d="M197.61 331.33C197.75 331.331 197.889 331.302 198.017 331.245C198.146 331.189 198.261 331.106 198.355 331.003C198.449 330.899 198.521 330.777 198.565 330.643C198.609 330.51 198.624 330.369 198.61 330.23L196.01 227.73C195.731 225.024 194.915 222.401 193.61 220.015C192.305 217.628 190.537 215.525 188.41 213.83C188.315 213.725 188.199 213.641 188.069 213.584C187.94 213.527 187.799 213.498 187.658 213.5C187.516 213.501 187.376 213.533 187.248 213.592C187.119 213.652 187.005 213.738 186.912 213.845C186.819 213.952 186.75 214.077 186.709 214.213C186.669 214.349 186.657 214.492 186.676 214.632C186.695 214.772 186.743 214.907 186.818 215.028C186.893 215.148 186.992 215.251 187.11 215.33C189.033 216.865 190.626 218.771 191.795 220.937C192.963 223.102 193.683 225.48 193.91 227.93L196.51 330.43C196.583 330.673 196.726 330.888 196.922 331.048C197.118 331.209 197.358 331.307 197.61 331.33V331.33Z" fill="black"/>
<path d="M115.21 253.43H163.61C163.875 253.43 164.13 253.325 164.317 253.137C164.505 252.95 164.61 252.695 164.61 252.43C164.61 252.165 164.505 251.91 164.317 251.723C164.13 251.535 163.875 251.43 163.61 251.43H115.21C115.076 251.421 114.942 251.441 114.817 251.488C114.692 251.535 114.578 251.609 114.483 251.703C114.389 251.798 114.315 251.912 114.268 252.037C114.221 252.162 114.201 252.296 114.21 252.43C114.21 252.695 114.315 252.95 114.503 253.137C114.69 253.325 114.945 253.43 115.21 253.43Z" fill="black"/>
<path d="M177.51 74.69C177.51 74.69 187.77 74.27 187.77 79.69C187.77 83.32 180.51 85.39 178.13 87.16C175.75 88.93 176.99 102.4 170.77 108.93C167.66 112.14 161.23 114.32 154.91 113.08L154.39 112.97L152.94 120.44C152.94 120.44 146.61 123.65 141.84 121.37C141.43 116.29 140.5 99.81 140.5 99.81C140.5 99.81 133.76 102.5 132.2 96.38C130.64 90.26 136.66 86.95 141.2 89.96L139.44 72.85L175.44 72.23L177.51 74.69Z" fill="white"/>
<path d="M141.27 90.17L141.9 73.69L175.59 72.34C175.59 72.34 188.14 56.79 169.48 52.54C163.88 51.54 161.48 58.14 161.48 58.14C161.48 58.14 152.25 47.98 139.71 52.75C127.17 57.52 129.25 70.17 129.25 70.17C129.25 70.17 120.12 72.87 121.06 80.54C122 88.21 127.17 91.12 127.17 91.12C127.17 91.12 117.95 97.34 123.55 104.8C129.15 112.26 140.96 106.15 140.96 106.15L140.65 100.03C140.65 100.03 136.82 101.38 134.85 100.03C133.513 99.0261 132.62 97.5412 132.36 95.89C132.137 94.8434 132.191 93.7568 132.517 92.7376C132.844 91.7185 133.431 90.8024 134.22 90.08C137.44 87.54 141.27 90.17 141.27 90.17Z" fill="#2BA4C9"/>
<path d="M158.51 114.6C155.842 114.584 153.201 114.058 150.73 113.05C150.607 112.999 150.494 112.924 150.4 112.829C150.306 112.735 150.231 112.622 150.18 112.499C150.128 112.375 150.102 112.243 150.102 112.109C150.102 111.976 150.129 111.843 150.18 111.72C150.231 111.597 150.306 111.484 150.401 111.39C150.495 111.296 150.608 111.221 150.731 111.17C150.855 111.118 150.987 111.092 151.121 111.092C151.254 111.092 151.387 111.119 151.51 111.17C158.51 114.17 166.44 112 169.86 108.37C173.49 104.54 174.42 98.11 175.15 93.37C175.67 89.74 176.08 87.37 177.32 86.37C178.291 85.6747 179.334 85.0848 180.43 84.61C182.92 83.37 186.43 81.61 186.43 79.74C186.442 79.3668 186.374 78.9954 186.23 78.6506C186.087 78.3058 185.872 77.9953 185.6 77.74C183.6 75.87 178.96 75.66 177.3 75.74C177.035 75.74 176.78 75.6346 176.593 75.4471C176.405 75.2595 176.3 75.0052 176.3 74.74C176.3 74.4748 176.405 74.2204 176.593 74.0329C176.78 73.8453 177.035 73.74 177.3 73.74C177.62 73.74 184.15 73.43 187.15 76.34C187.633 76.7653 188.014 77.2932 188.267 77.8849C188.519 78.4765 188.637 79.1172 188.61 79.76C188.61 82.97 184.67 84.94 181.45 86.5C180.478 86.943 179.542 87.4612 178.65 88.05C178.03 88.47 177.65 91.37 177.3 93.65C176.58 98.65 175.44 105.47 171.39 109.72C168.75 112.63 163.77 114.6 158.51 114.6Z" fill="black"/>
<path d="M161.39 81.12C162.252 81.12 162.95 80.4215 162.95 79.56C162.95 78.6984 162.252 78 161.39 78C160.528 78 159.83 78.6984 159.83 79.56C159.83 80.4215 160.528 81.12 161.39 81.12Z" fill="black"/>
<path d="M167.92 80.6C168.782 80.6 169.48 79.9015 169.48 79.04C169.48 78.1784 168.782 77.48 167.92 77.48C167.058 77.48 166.36 78.1784 166.36 79.04C166.36 79.9015 167.058 80.6 167.92 80.6Z" fill="black"/>
<path d="M145.84 123.41C144.306 123.4 142.79 123.084 141.38 122.48C141.233 122.393 141.11 122.272 141.019 122.128C140.929 121.984 140.874 121.82 140.86 121.65C140.55 117.5 139.86 105.37 139.62 101.43C137.861 101.899 135.995 101.754 134.33 101.02C133.545 100.605 132.866 100.014 132.346 99.2947C131.826 98.575 131.478 97.7454 131.33 96.87C130.61 93.76 131.44 90.96 133.82 89.3C135.035 88.4839 136.469 88.0573 137.932 88.0769C139.395 88.0966 140.818 88.5616 142.01 89.41C142.126 89.4848 142.225 89.5817 142.303 89.6951C142.381 89.8085 142.436 89.9361 142.465 90.0708C142.494 90.2054 142.496 90.3444 142.471 90.4798C142.446 90.6152 142.395 90.7444 142.32 90.86C142.245 90.9755 142.148 91.0752 142.035 91.1533C141.921 91.2315 141.794 91.2865 141.659 91.3153C141.525 91.3441 141.386 91.346 141.25 91.3211C141.115 91.2962 140.986 91.2448 140.87 91.17C140.023 90.5743 139.016 90.2464 137.98 90.2286C136.945 90.2107 135.927 90.5038 135.06 91.07C134.275 91.6983 133.697 92.5487 133.403 93.5103C133.109 94.4718 133.111 95.4998 133.41 96.46C133.502 97.0503 133.731 97.611 134.078 98.0972C134.425 98.5834 134.881 98.9816 135.41 99.26C137.48 100.26 140.28 99.15 140.41 99.15C140.562 99.091 140.727 99.0702 140.889 99.0894C141.051 99.1086 141.206 99.1671 141.34 99.26C141.609 99.4638 141.794 99.759 141.86 100.09C141.86 100.29 142.69 115.43 143.11 121.03C146.53 122.38 150.88 120.72 152.23 120.1L153.51 113.17C153.527 113.024 153.574 112.883 153.648 112.756C153.722 112.63 153.821 112.52 153.94 112.433C154.059 112.347 154.194 112.286 154.338 112.255C154.481 112.224 154.63 112.223 154.774 112.252C154.918 112.281 155.054 112.34 155.174 112.425C155.294 112.509 155.395 112.618 155.471 112.744C155.547 112.87 155.596 113.01 155.614 113.155C155.633 113.301 155.621 113.449 155.58 113.59L154.13 121.05C154.046 121.346 153.863 121.604 153.61 121.78C153.2 121.65 149.67 123.41 145.84 123.41Z" fill="black"/>
<path d="M452.97 167.17L449.13 137.06C449.13 137.06 459.73 132.24 455.87 116.82C452.01 101.4 444.22 78.6 433.71 73.46C423.2 68.32 420.71 69.69 410.34 67.24L409.34 54.94C409.34 54.94 420.13 54.47 416.8 50.94C413.47 47.41 412.14 45.25 408.47 46.34L405.86 33.54L371.32 33.17C371.32 33.17 364.91 37.78 361.25 38.27C357.59 38.76 364.62 46.82 368.33 48.09C372.04 49.36 370.91 63.09 377.82 66.71C384.73 70.33 397.29 65.99 397.29 65.99L396.29 70.84C391.908 70.3186 387.475 71.2214 383.646 73.415C379.817 75.6085 376.796 78.9763 375.03 83.02C368.18 97.54 357.68 113.91 356.61 123.56C355.89 130.13 357.37 134.5 368.07 137.7L361.61 164.7C361.61 164.7 374.92 173.17 452.97 167.17Z" fill="white"/>
<path d="M491.34 195.79H417.42C415.39 195.779 413.446 194.968 412.012 193.531C410.577 192.095 409.768 190.15 409.76 188.12C409.765 186.089 410.574 184.143 412.009 182.706C413.444 181.269 415.389 180.458 417.42 180.45H491.34C493.38 180.458 495.334 181.275 496.772 182.723C498.211 184.17 499.015 186.13 499.01 188.17V188.17C498.989 190.193 498.173 192.127 496.737 193.553C495.302 194.978 493.363 195.782 491.34 195.79V195.79Z" fill="white"/>
<path d="M491.34 197.04H417.42C415.105 196.962 412.91 195.988 411.3 194.323C409.689 192.658 408.789 190.432 408.789 188.115C408.789 185.798 409.689 183.572 411.3 181.907C412.91 180.242 415.105 179.267 417.42 179.19H491.34C492.537 179.15 493.73 179.351 494.848 179.782C495.966 180.212 496.986 180.863 497.847 181.696C498.708 182.528 499.393 183.526 499.86 184.629C500.328 185.732 500.569 186.917 500.569 188.115C500.569 189.313 500.328 190.498 499.86 191.601C499.393 192.704 498.708 193.701 497.847 194.534C496.986 195.367 495.966 196.018 494.848 196.448C493.73 196.879 492.537 197.08 491.34 197.04V197.04ZM417.42 181.83C415.72 181.83 414.09 182.505 412.887 183.707C411.685 184.91 411.01 186.54 411.01 188.24C411.01 189.94 411.685 191.57 412.887 192.773C414.09 193.975 415.72 194.65 417.42 194.65H491.34C493.04 194.65 494.67 193.975 495.873 192.773C497.075 191.57 497.75 189.94 497.75 188.24C497.75 186.54 497.075 184.91 495.873 183.707C494.67 182.505 493.04 181.83 491.34 181.83H417.42Z" fill="black"/>
<path d="M403.85 350.66H403.6C403.271 350.585 402.983 350.387 402.797 350.106C402.611 349.824 402.54 349.482 402.6 349.15L428.37 195.41C428.436 195.076 428.633 194.782 428.916 194.592C429.199 194.403 429.546 194.334 429.88 194.4C430.214 194.466 430.508 194.663 430.698 194.946C430.887 195.229 430.956 195.576 430.89 195.91L405.11 349.65C405.057 349.942 404.901 350.205 404.669 350.391C404.437 350.576 404.147 350.672 403.85 350.66V350.66Z" fill="black"/>
<path d="M504.92 350.66C504.625 350.672 504.335 350.578 504.104 350.395C503.873 350.211 503.715 349.95 503.66 349.66L477.89 195.91C477.824 195.576 477.893 195.229 478.082 194.946C478.272 194.663 478.566 194.466 478.9 194.4C479.234 194.334 479.581 194.403 479.864 194.592C480.147 194.782 480.344 195.076 480.41 195.41L506.18 349.17C506.221 349.5 506.143 349.833 505.96 350.11C505.776 350.387 505.5 350.589 505.18 350.68L504.92 350.66Z" fill="black"/>
<path d="M454.38 350.66C454.212 350.67 454.044 350.645 453.887 350.585C453.73 350.525 453.588 350.433 453.469 350.313C453.351 350.194 453.26 350.051 453.201 349.893C453.143 349.736 453.118 349.568 453.13 349.4V195.79C453.114 195.616 453.135 195.44 453.191 195.274C453.247 195.109 453.337 194.957 453.455 194.827C453.573 194.698 453.717 194.595 453.877 194.525C454.037 194.454 454.21 194.418 454.385 194.418C454.56 194.418 454.733 194.454 454.893 194.525C455.053 194.595 455.197 194.698 455.315 194.827C455.433 194.957 455.523 195.109 455.579 195.274C455.635 195.44 455.656 195.616 455.64 195.79V349.53C455.636 349.689 455.6 349.845 455.534 349.989C455.468 350.133 455.373 350.262 455.255 350.368C455.137 350.474 454.998 350.554 454.848 350.605C454.697 350.655 454.538 350.674 454.38 350.66V350.66Z" fill="black"/>
<path d="M495.87 296.86H412.87C412.536 296.86 412.215 296.727 411.979 296.491C411.743 296.255 411.61 295.934 411.61 295.6C411.61 295.266 411.743 294.945 411.979 294.709C412.215 294.473 412.536 294.34 412.87 294.34H495.87C496.204 294.34 496.525 294.473 496.761 294.709C496.997 294.945 497.13 295.266 497.13 295.6C497.13 295.934 496.997 296.255 496.761 296.491C496.525 296.727 496.204 296.86 495.87 296.86V296.86Z" fill="black"/>
<path d="M394.04 317.72L384.11 349.4H324.27C324.27 349.4 318.27 349.65 321.38 344.63C324.49 339.61 354.57 333.82 354.57 333.82L360.23 316.82L394.04 317.72Z" fill="white"/>
<path d="M324.15 350.66C323.39 350.66 320.75 350.53 319.62 348.66C318.87 347.4 319.12 345.77 320.25 344.01C323.39 339.11 347.15 334.08 353.56 332.82L358.97 316.48C359.052 316.214 359.22 315.983 359.449 315.823C359.677 315.664 359.952 315.585 360.23 315.6L394.04 316.35C394.424 316.387 394.78 316.565 395.04 316.85C395.151 317.016 395.22 317.207 395.241 317.405C395.262 317.604 395.234 317.805 395.16 317.99L385.23 349.66C385.151 349.926 384.985 350.158 384.758 350.318C384.531 350.478 384.257 350.556 383.98 350.54H324.27C324.27 350.572 324.257 350.602 324.235 350.625C324.212 350.647 324.182 350.66 324.15 350.66ZM361.15 318.23L355.87 334.32C355.785 334.535 355.65 334.728 355.476 334.881C355.302 335.034 355.094 335.143 354.87 335.2C343.43 337.34 324.58 342.11 322.44 345.38C321.81 346.38 321.56 347.14 321.81 347.52C322.06 347.9 323.44 348.27 324.2 348.27H383.2L392.37 318.98L361.15 318.23Z" fill="black"/>
<path d="M411.64 164.99H366.64L339.51 187.61C334.347 191.906 330.908 197.92 329.824 204.548C328.74 211.177 330.084 217.973 333.61 223.69L372.95 287.3L406.95 242.55L375.27 217.28L395.27 198.43L411.64 164.99Z" fill="#2BA4C9"/>
<path d="M451.51 164.99H407.87L339.61 320.74L406.36 328.54L449.86 187.61C450.908 183.715 451.462 179.703 451.51 175.67V164.99Z" fill="#2BA4C9"/>
<path d="M358.51 279.01C358.33 279.029 358.149 278.983 358 278.88C357.703 278.745 357.471 278.498 357.355 278.192C357.239 277.887 357.248 277.549 357.38 277.25L394.21 193.25C394.266 193.088 394.355 192.939 394.472 192.813C394.588 192.687 394.73 192.587 394.887 192.518C395.044 192.45 395.214 192.415 395.386 192.415C395.557 192.416 395.727 192.452 395.884 192.521C396.041 192.591 396.181 192.692 396.297 192.819C396.413 192.945 396.501 193.095 396.556 193.257C396.611 193.419 396.632 193.592 396.617 193.763C396.602 193.933 396.552 194.099 396.47 194.25L359.64 278.25C359.529 278.46 359.368 278.639 359.171 278.772C358.973 278.905 358.746 278.986 358.51 279.01Z" fill="black"/>
<path d="M369.28 224.57C369.115 224.576 368.951 224.546 368.799 224.482C368.647 224.419 368.511 224.322 368.4 224.2C368.279 224.088 368.182 223.952 368.116 223.8C368.05 223.649 368.016 223.485 368.016 223.32C368.016 223.155 368.05 222.991 368.116 222.84C368.182 222.688 368.279 222.552 368.4 222.44L391.03 200.44C391.142 200.319 391.279 200.222 391.43 200.156C391.581 200.09 391.745 200.056 391.91 200.056C392.075 200.056 392.239 200.09 392.39 200.156C392.542 200.222 392.678 200.319 392.79 200.44C392.909 200.554 393.003 200.69 393.067 200.842C393.132 200.993 393.165 201.156 393.165 201.32C393.165 201.484 393.132 201.647 393.067 201.798C393.003 201.95 392.909 202.086 392.79 202.2L370.16 224.2C370.048 224.321 369.912 224.417 369.76 224.481C369.608 224.544 369.445 224.575 369.28 224.57V224.57Z" fill="black"/>
<path d="M382.51 224.17C382.236 224.162 381.971 224.072 381.75 223.91L374.93 218.17C374.705 217.946 374.573 217.645 374.562 217.328C374.55 217.01 374.66 216.701 374.869 216.461C375.078 216.222 375.37 216.071 375.686 216.039C376.002 216.007 376.318 216.097 376.57 216.29L383.36 222.07C383.487 222.176 383.591 222.306 383.666 222.452C383.741 222.599 383.785 222.76 383.796 222.924C383.807 223.089 383.785 223.254 383.731 223.41C383.677 223.565 383.591 223.708 383.48 223.83C383.2 224.042 382.861 224.161 382.51 224.17V224.17Z" fill="black"/>
<path d="M371.32 33.17L405.87 33.55L408.48 46.35C408.48 46.35 411.96 44.35 413.82 46.72C414.98 48.21 415.594 50.0523 415.56 51.94C415.56 57.41 409.35 54.94 409.35 54.94L409.97 66C409.97 66 442.91 38.51 411.51 28.07C410.64 22.23 400.7 9.79997 380.07 17.01C364.11 23.35 371.32 33.17 371.32 33.17Z" fill="#2BA4C9"/>
<path d="M384.12 69.17C381.263 69.3088 378.444 68.477 376.12 66.81C371.52 63.2 371.03 56.62 370.78 53.14C370.78 52.51 370.65 52.02 370.65 51.64C370.28 48.64 368.42 48.04 368.29 48.04C368.16 48.04 360.21 46.18 360.21 41.04C360.21 35.9 368.21 34.95 368.42 34.83C368.583 34.8106 368.748 34.8242 368.905 34.8699C369.062 34.9157 369.209 34.9927 369.336 35.0962C369.463 35.1998 369.567 35.3279 369.644 35.4729C369.72 35.6179 369.766 35.7767 369.78 35.94C369.809 36.1045 369.802 36.2733 369.76 36.435C369.718 36.5967 369.642 36.7475 369.536 36.8773C369.431 37.0071 369.3 37.1128 369.15 37.1875C369.001 37.2621 368.837 37.3039 368.67 37.31C368.67 37.31 362.57 38.06 362.57 41.04C362.57 43.65 367.17 45.27 368.79 45.64C368.91 45.64 372.39 46.64 373.02 51.36C373.02 51.73 373.14 52.36 373.14 52.97C373.39 56.33 373.76 62.04 377.61 64.9C379.98 66.77 383.33 67.26 387.81 66.39C394.81 65.15 399.81 63.78 399.99 63.78C400.304 63.6977 400.638 63.7437 400.919 63.9078C401.199 64.0719 401.403 64.3407 401.485 64.655C401.567 64.9692 401.521 65.3033 401.357 65.5837C401.193 65.864 400.924 66.0677 400.61 66.15C400.61 66.15 395.26 67.51 388.3 68.88C386.73 68.96 385.36 69.17 384.12 69.17Z" fill="black"/>
<path d="M378.52 41.5C379.415 41.5 380.14 40.7747 380.14 39.88C380.14 38.9853 379.415 38.26 378.52 38.26C377.625 38.26 376.9 38.9853 376.9 39.88C376.9 40.7747 377.625 41.5 378.52 41.5Z" fill="black"/>
<path d="M385.36 41.62C386.255 41.62 386.98 40.8947 386.98 40C386.98 39.1053 386.255 38.38 385.36 38.38C384.465 38.38 383.74 39.1053 383.74 40C383.74 40.8947 384.465 41.62 385.36 41.62Z" fill="black"/>
<path d="M402.14 76.17C399.559 76.2236 397.056 75.29 395.14 73.56C395.019 73.4503 394.924 73.3157 394.86 73.1655C394.796 73.0154 394.765 72.8531 394.77 72.69V65.98C394.77 65.6511 394.901 65.3357 395.133 65.1032C395.366 64.8706 395.681 64.74 396.01 64.74C396.339 64.74 396.654 64.8706 396.887 65.1032C397.119 65.3357 397.25 65.6511 397.25 65.98V72.17C398.37 73.04 402.35 75.4 408.94 71.55C408.94 66.33 408.19 55.02 408.19 54.9C408.177 54.6869 408.216 54.4738 408.303 54.2789C408.39 54.084 408.523 53.9128 408.69 53.78C408.875 53.6694 409.081 53.6005 409.296 53.578C409.51 53.5556 409.726 53.5801 409.93 53.65C410.55 53.9 412.54 54.52 413.53 53.9C414.28 53.4 414.4 52.16 414.28 51.17C414.03 49.17 413.16 47.44 412.04 46.82C411.547 46.6365 411.017 46.5744 410.495 46.6388C409.973 46.7032 409.474 46.8922 409.04 47.19C408.761 47.3491 408.431 47.3954 408.119 47.3195C407.806 47.2435 407.535 47.051 407.36 46.7813C407.184 46.5117 407.119 46.1853 407.177 45.869C407.235 45.5527 407.411 45.2704 407.67 45.08C410.16 43.59 412.02 43.96 413.14 44.58C415.14 45.58 416.5 47.94 416.75 50.92C416.87 53.28 416.25 54.92 414.88 55.92C413.605 56.659 412.094 56.8809 410.66 56.54C410.9 60.15 411.28 68.35 411.28 72.2C411.28 72.4078 411.221 72.6114 411.112 72.788C411.002 72.9646 410.846 73.1072 410.66 73.2C408.177 75.0124 405.212 76.0462 402.14 76.17V76.17Z" fill="black"/>
<path d="M411.51 29.17C411.346 29.1729 411.184 29.1404 411.034 29.0749C410.883 29.0093 410.749 28.9121 410.64 28.79C410.522 28.6779 410.428 28.5429 410.364 28.3934C410.3 28.2438 410.266 28.0828 410.266 27.92C410.266 27.7572 410.3 27.5962 410.364 27.4466C410.428 27.297 410.522 27.1621 410.64 27.05C410.77 26.93 414.49 23.45 418.47 24.82C418.624 24.883 418.765 24.9758 418.883 25.0931C419.002 25.2104 419.096 25.3499 419.16 25.5035C419.225 25.6572 419.258 25.8221 419.259 25.9888C419.26 26.1555 419.228 26.3207 419.165 26.475C419.102 26.6293 419.009 26.7697 418.892 26.8881C418.775 27.0065 418.635 27.1007 418.481 27.1652C418.328 27.2298 418.163 27.2634 417.996 27.2642C417.83 27.2651 417.664 27.233 417.51 27.17C414.9 26.3 412.17 28.91 412.17 28.91C411.985 29.0672 411.753 29.1586 411.51 29.17V29.17Z" fill="black"/>
<path d="M443.65 138.07C442.858 138.046 442.069 137.962 441.29 137.82L380.02 127C379.691 126.932 379.402 126.738 379.215 126.46C379.028 126.181 378.958 125.84 379.02 125.51L383.74 97.92C383.74 97.55 383.99 97.3 384.37 97.05C384.511 96.9433 384.678 96.876 384.854 96.8549C385.03 96.8338 385.208 96.8597 385.37 96.93L440.43 112.71C440.743 112.792 441.01 112.995 441.174 113.275C441.337 113.554 441.382 113.887 441.3 114.2C441.218 114.513 441.015 114.78 440.735 114.944C440.456 115.107 440.123 115.152 439.81 115.07L386.11 99.66L381.76 124.66L441.76 135.35C443.613 135.667 445.517 135.515 447.296 134.908C449.076 134.3 450.675 133.257 451.948 131.873C453.22 130.489 454.126 128.808 454.583 126.984C455.039 125.16 455.031 123.25 454.56 121.43L447.13 93.17C445.598 87.2926 442.318 82.0187 437.723 78.0458C433.129 74.0728 427.437 71.5881 421.4 70.92L410.09 69.68C409.781 69.6038 409.505 69.4288 409.305 69.1815C409.105 68.9342 408.99 68.6281 408.98 68.31C409.035 67.9914 409.203 67.7031 409.452 67.4975C409.702 67.292 410.017 67.1829 410.34 67.19L421.65 68.43C428.192 69.1637 434.358 71.8649 439.332 76.1768C444.306 80.4887 447.855 86.2083 449.51 92.58L456.97 120.79C457.575 123.021 457.596 125.371 457.031 127.613C456.465 129.855 455.332 131.913 453.74 133.59C452.458 134.992 450.9 136.114 449.164 136.885C447.427 137.656 445.55 138.06 443.65 138.07V138.07Z" fill="black"/>
<path d="M372.43 139.81C369.615 139.797 366.848 139.076 364.384 137.714C361.92 136.353 359.838 134.393 358.328 132.017C356.819 129.641 355.931 126.923 355.746 124.114C355.561 121.304 356.085 118.494 357.27 115.94L372.81 82.01C374.234 78.9964 376.324 76.3457 378.923 74.2582C381.521 72.1707 384.56 70.701 387.81 69.96L395.76 68.34C396.088 68.2793 396.427 68.3501 396.703 68.5369C396.979 68.7238 397.17 69.0118 397.236 69.3388C397.302 69.6657 397.236 70.0054 397.054 70.2844C396.871 70.5634 396.586 70.7594 396.26 70.83L388.26 72.44C385.379 73.0591 382.68 74.3351 380.373 76.1685C378.066 78.0019 376.214 80.3432 374.96 83.01L359.51 116.94C358.354 119.45 357.95 122.24 358.346 124.975C358.741 127.709 359.92 130.271 361.74 132.35C363.54 134.462 365.926 135.992 368.597 136.745C371.268 137.498 374.102 137.441 376.74 136.58L402.85 128.58C403.163 128.498 403.496 128.543 403.775 128.706C404.055 128.87 404.258 129.137 404.34 129.45C404.422 129.763 404.377 130.096 404.214 130.375C404.05 130.655 403.783 130.858 403.47 130.94L377.37 138.94C375.791 139.534 374.116 139.829 372.43 139.81V139.81Z" fill="black"/>
<path d="M382.13 115.32C381.913 115.329 381.698 115.277 381.51 115.17L369.08 108.7C368.941 108.626 368.819 108.526 368.719 108.405C368.619 108.284 368.544 108.145 368.498 107.995C368.452 107.845 368.436 107.687 368.451 107.531C368.466 107.375 368.511 107.224 368.585 107.085C368.659 106.946 368.759 106.824 368.88 106.724C369.001 106.624 369.14 106.549 369.29 106.503C369.44 106.457 369.598 106.441 369.754 106.456C369.91 106.471 370.061 106.516 370.2 106.59L382.63 113.05C382.774 113.118 382.903 113.216 383.007 113.336C383.111 113.457 383.189 113.598 383.235 113.751C383.281 113.904 383.295 114.064 383.275 114.223C383.255 114.381 383.202 114.533 383.12 114.67C383.046 114.87 382.91 115.04 382.732 115.157C382.553 115.274 382.343 115.331 382.13 115.32V115.32Z" fill="black"/>
<path d="M371.44 109.73H371.19C371.032 109.694 370.883 109.627 370.753 109.531C370.622 109.435 370.513 109.314 370.431 109.174C370.35 109.034 370.298 108.879 370.278 108.719C370.259 108.558 370.273 108.395 370.32 108.24C371.109 105.17 373.074 102.533 375.79 100.9C377.186 100.19 378.719 99.7887 380.285 99.7249C381.85 99.661 383.41 99.9356 384.86 100.53C385.017 100.586 385.16 100.672 385.283 100.784C385.406 100.896 385.505 101.032 385.575 101.182C385.645 101.333 385.684 101.497 385.69 101.663C385.696 101.829 385.669 101.995 385.61 102.15C385.565 102.314 385.485 102.466 385.375 102.595C385.265 102.725 385.128 102.828 384.973 102.899C384.819 102.97 384.65 103.005 384.481 103.004C384.311 103.002 384.143 102.963 383.99 102.89C381.26 102.02 378.77 102.02 376.91 103.14C373.68 104.88 372.68 108.86 372.68 108.86C372.57 109.103 372.397 109.311 372.179 109.464C371.961 109.617 371.706 109.709 371.44 109.73V109.73Z" fill="black"/>
<path d="M429.61 112.17C429.316 112.182 429.028 112.087 428.798 111.904C428.568 111.72 428.413 111.459 428.36 111.17L426.87 102.47L410.72 106.7C410.416 106.756 410.102 106.694 409.84 106.529C409.579 106.363 409.39 106.105 409.31 105.806C409.231 105.507 409.267 105.189 409.411 104.915C409.556 104.642 409.798 104.433 410.09 104.33L427.49 99.73C427.827 99.6393 428.187 99.686 428.49 99.86C428.628 99.9634 428.744 100.094 428.83 100.244C428.916 100.393 428.97 100.559 428.99 100.73L430.73 110.8C430.768 111.127 430.689 111.457 430.505 111.73C430.322 112.003 430.047 112.202 429.73 112.29C429.73 112.17 429.73 112.17 429.61 112.17Z" fill="black"/>
<path d="M438.56 114.82C438.218 114.795 437.898 114.64 437.666 114.387C437.434 114.135 437.306 113.803 437.31 113.46C437.69 109.73 436.94 107.12 435.2 105.46C432.59 103.23 428.49 103.97 428.49 103.97C428.326 104.005 428.157 104.006 427.993 103.975C427.829 103.943 427.672 103.878 427.533 103.785C427.394 103.692 427.276 103.572 427.184 103.432C427.092 103.292 427.03 103.135 427 102.97C426.956 102.806 426.947 102.634 426.975 102.466C427.003 102.299 427.066 102.139 427.161 101.997C427.256 101.856 427.38 101.737 427.524 101.648C427.669 101.559 427.831 101.501 428 101.48C428.25 101.48 433.35 100.36 436.83 103.59C439.19 105.703 440.19 109.06 439.83 113.66C439.794 113.974 439.645 114.264 439.412 114.478C439.179 114.691 438.876 114.812 438.56 114.82V114.82Z" fill="black"/>
<path d="M361.62 164.66H361.37C361.041 164.592 360.752 164.398 360.565 164.12C360.378 163.841 360.308 163.5 360.37 163.17L365.59 137.17C365.622 137.007 365.686 136.852 365.778 136.714C365.87 136.576 365.989 136.457 366.126 136.365C366.264 136.273 366.419 136.208 366.582 136.176C366.745 136.143 366.912 136.143 367.075 136.175C367.238 136.207 367.393 136.271 367.531 136.363C367.669 136.455 367.788 136.574 367.88 136.711C367.972 136.849 368.037 137.004 368.069 137.167C368.102 137.33 368.102 137.497 368.07 137.66L362.85 163.66C362.802 163.948 362.65 164.208 362.424 164.392C362.197 164.576 361.912 164.671 361.62 164.66V164.66Z" fill="black"/>
<path d="M454.22 168.27C453.915 168.254 453.625 168.134 453.398 167.93C453.171 167.726 453.02 167.451 452.97 167.15C452.23 159.32 447.38 136.33 447.26 136.08C447.227 135.917 447.227 135.749 447.259 135.586C447.291 135.423 447.354 135.268 447.446 135.13C447.538 134.992 447.657 134.873 447.794 134.78C447.932 134.687 448.087 134.623 448.25 134.59C448.413 134.557 448.581 134.557 448.744 134.589C448.907 134.621 449.062 134.684 449.2 134.776C449.338 134.868 449.457 134.987 449.55 135.124C449.643 135.262 449.707 135.417 449.74 135.58C449.99 136.58 454.74 158.95 455.46 166.9C455.478 167.064 455.463 167.229 455.416 167.387C455.37 167.545 455.292 167.692 455.187 167.82C455.083 167.947 454.955 168.053 454.809 168.13C454.664 168.208 454.504 168.255 454.34 168.27H454.22Z" fill="black"/>
<path d="M321.256 55.0306L259.857 55.3521L260.205 121.891L321.604 121.57L321.256 55.0306Z" fill="white"/>
<path d="M321.83 122.65L260.05 123.02C259.915 123.036 259.778 123.021 259.649 122.977C259.52 122.932 259.404 122.859 259.307 122.763C259.211 122.666 259.138 122.55 259.093 122.421C259.049 122.292 259.034 122.155 259.05 122.02L258.69 55.38C258.673 55.252 258.685 55.1219 258.725 54.9991C258.765 54.8763 258.831 54.7638 258.92 54.67C258.996 54.5655 259.101 54.486 259.222 54.4414C259.343 54.3969 259.475 54.3895 259.6 54.42L321.28 54.06C321.416 54.0419 321.554 54.0552 321.683 54.0991C321.813 54.1429 321.93 54.2161 322.027 54.3128C322.124 54.4095 322.197 54.5273 322.241 54.6569C322.285 54.7864 322.298 54.9244 322.28 55.06L322.65 121.69C322.668 121.82 322.655 121.953 322.614 122.078C322.572 122.203 322.502 122.316 322.41 122.41C322.334 122.486 322.243 122.546 322.144 122.588C322.044 122.629 321.938 122.65 321.83 122.65V122.65ZM261.08 121.05L320.88 120.75L320.58 56.09L260.77 56.39L261.08 121.05Z" fill="black"/>
<path d="M321.63 72.45L272.63 72.74C272.494 72.7581 272.356 72.7447 272.227 72.7008C272.097 72.657 271.98 72.5839 271.883 72.4871C271.786 72.3904 271.713 72.2727 271.669 72.1431C271.625 72.0135 271.612 71.8756 271.63 71.74C271.619 71.606 271.638 71.4713 271.685 71.3452C271.731 71.2191 271.804 71.1046 271.899 71.0095C271.995 70.9145 272.109 70.8412 272.235 70.7946C272.361 70.7481 272.496 70.7295 272.63 70.74L321.54 70.45C321.676 70.4319 321.813 70.4452 321.943 70.4891C322.073 70.5329 322.19 70.6061 322.287 70.7028C322.384 70.7995 322.457 70.9173 322.501 71.0469C322.545 71.1764 322.558 71.3144 322.54 71.45C322.541 71.7003 322.448 71.9419 322.28 72.1271C322.111 72.3122 321.879 72.4274 321.63 72.45Z" fill="black"/>
<path d="M265.51 72.74L259.77 72.82C259.634 72.8381 259.496 72.8247 259.367 72.7808C259.237 72.737 259.12 72.6639 259.023 72.5671C258.926 72.4704 258.853 72.3527 258.809 72.2231C258.765 72.0935 258.752 71.9556 258.77 71.82C258.82 71.22 259.18 70.82 259.77 70.82L265.41 70.75C265.546 70.7319 265.684 70.7453 265.813 70.7891C265.943 70.833 266.06 70.9061 266.157 71.0028C266.254 71.0995 266.327 71.2173 266.371 71.3469C266.415 71.4764 266.428 71.6144 266.41 71.75C266.42 71.8749 266.403 72.0004 266.363 72.1189C266.322 72.2374 266.258 72.3463 266.173 72.439C266.089 72.5317 265.987 72.6062 265.873 72.658C265.759 72.7097 265.635 72.7376 265.51 72.74V72.74Z" fill="black"/>
<path d="M272.61 61.75C272.472 61.7611 272.333 61.7434 272.203 61.6981C272.072 61.6528 271.952 61.5809 271.851 61.487C271.749 61.393 271.668 61.2789 271.613 61.1521C271.558 61.0252 271.53 60.8883 271.53 60.75V49.56C271.53 49.2948 271.635 49.0404 271.823 48.8529C272.01 48.6653 272.265 48.56 272.53 48.56C272.795 48.56 273.05 48.6653 273.237 48.8529C273.425 49.0404 273.53 49.2948 273.53 49.56V60.75C273.543 60.8777 273.528 61.0066 273.488 61.1283C273.447 61.25 273.381 61.3618 273.294 61.4562C273.207 61.5507 273.101 61.6257 272.983 61.6763C272.866 61.7269 272.738 61.752 272.61 61.75V61.75Z" fill="black"/>
<path d="M290.73 61.73C290.593 61.7396 290.455 61.7209 290.326 61.6749C290.196 61.629 290.078 61.5569 289.977 61.463C289.877 61.3692 289.797 61.2557 289.742 61.1295C289.688 61.0034 289.66 60.8674 289.66 60.73L289.51 49.45C289.51 49.1848 289.615 48.9304 289.803 48.7429C289.99 48.5553 290.245 48.45 290.51 48.45C290.775 48.45 291.03 48.5553 291.217 48.7429C291.405 48.9304 291.51 49.1848 291.51 49.45V60.64C291.536 60.7633 291.536 60.8906 291.51 61.0139C291.484 61.1373 291.433 61.2538 291.359 61.3563C291.286 61.4588 291.192 61.5449 291.084 61.6092C290.976 61.6735 290.855 61.7147 290.73 61.73V61.73Z" fill="black"/>
<path d="M308.75 61.63C308.613 61.6396 308.475 61.6209 308.346 61.5749C308.216 61.529 308.098 61.4569 307.997 61.363C307.897 61.2692 307.817 61.1557 307.762 61.0295C307.708 60.9034 307.68 60.7674 307.68 60.63V49.44C307.671 49.3064 307.691 49.1724 307.738 49.0471C307.785 48.9217 307.859 48.8079 307.953 48.7132C308.048 48.6186 308.162 48.5452 308.287 48.4981C308.412 48.4509 308.546 48.4311 308.68 48.44C308.816 48.4219 308.954 48.4353 309.083 48.4791C309.213 48.523 309.33 48.5961 309.427 48.6928C309.524 48.7895 309.597 48.9073 309.641 49.0369C309.685 49.1664 309.698 49.3044 309.68 49.44V60.63C309.681 60.8835 309.585 61.1278 309.412 61.3134C309.24 61.4991 309.003 61.6122 308.75 61.63Z" fill="black"/>
<path d="M279.987 83.8771L268.437 83.9375L268.492 94.4974L280.042 94.4369L279.987 83.8771Z" fill="#2BA4C9"/>
<path d="M296.516 83.8005L284.966 83.861L285.021 94.4208L296.571 94.3604L296.516 83.8005Z" fill="#2BA4C9"/>
<path d="M313.055 83.7139L301.505 83.7744L301.561 94.3343L313.111 94.2738L313.055 83.7139Z" fill="#2BA4C9"/>
<path d="M280.019 99.7167L268.47 99.7772L268.525 110.337L280.075 110.277L280.019 99.7167Z" fill="#2BA4C9"/>
<path d="M296.549 99.6401L284.999 99.7006L285.054 110.26L296.604 110.2L296.549 99.6401Z" fill="#2BA4C9"/>
<path d="M313.088 99.5635L301.538 99.624L301.594 110.184L313.143 110.123L313.088 99.5635Z" fill="#2BA4C9"/>
<path d="M280.05 95.41C279.921 95.4233 279.791 95.4088 279.669 95.3674C279.546 95.326 279.434 95.2587 279.34 95.17L267.79 84.93C267.653 84.7489 267.582 84.5265 267.588 84.2995C267.594 84.0725 267.677 83.8543 267.824 83.6808C267.97 83.5074 268.172 83.3891 268.395 83.3453C268.618 83.3015 268.849 83.3349 269.05 83.44L280.6 93.68C280.701 93.7601 280.784 93.8601 280.845 93.9739C280.906 94.0876 280.942 94.2126 280.953 94.3411C280.963 94.4696 280.947 94.5988 280.905 94.7208C280.863 94.8427 280.797 94.9548 280.71 95.05C280.633 95.155 280.534 95.2418 280.42 95.304C280.306 95.3663 280.18 95.4025 280.05 95.41V95.41Z" fill="black"/>
<path d="M268.56 95.47C268.407 95.4882 268.251 95.4676 268.108 95.4099C267.964 95.3522 267.838 95.2594 267.74 95.14C267.568 94.9415 267.481 94.6835 267.498 94.4215C267.515 94.1596 267.634 93.9148 267.83 93.74L279.33 83.08C279.531 82.9509 279.771 82.898 280.008 82.9308C280.244 82.9635 280.461 83.0798 280.619 83.2585C280.778 83.4373 280.867 83.6667 280.87 83.9054C280.874 84.1441 280.792 84.3763 280.64 84.56L269.14 95.22C269.067 95.3008 268.977 95.3649 268.877 95.4081C268.777 95.4512 268.669 95.4723 268.56 95.47V95.47Z" fill="black"/>
</g>
<defs>
<clipPath id="clip0_1:105">
<rect width="534" height="352" fill="white"/>
</clipPath>
</defs>
</svg>
